<?xml version="1.0" encoding="UTF-8" standalone="no"?>
<!-- Created with Inkscape (http://www.inkscape.org/) -->

<svg
   version="1.1"
   id="svg2"
   xml:space="preserve"
   width="295.09332"
   height="266.70667"
   viewBox="0 0 295.09332 266.70667"
   sodipodi:docname="2011.i203.001.skincare cartoon.svg"
   inkscape:version="1.1.2 (0a00cf5339, 2022-02-04)"
   xmlns:inkscape="http://www.inkscape.org/namespaces/inkscape"
   xmlns:sodipodi="http://sodipodi.sourceforge.net/DTD/sodipodi-0.dtd"
   xmlns="http://www.w3.org/2000/svg"
   xmlns:svg="http://www.w3.org/2000/svg"><defs
     id="defs6"><clipPath
       clipPathUnits="userSpaceOnUse"
       id="clipPath184"><path
         d="m 1693.49,241.551 c -63.62,167.508 -129.96,248.859 -203,275.758 l -0.23,-0.321 c -36.17,17.762 -107.48,30.891 -143.82,49.223 -43.41,21.898 -445.569,0 -445.569,0 -64.519,-30.301 -127.418,-37.68 -162.355,-56.172 l -0.461,0.672 c -87.325,-39 -146.844,-111.18 -205.067,-269.16 z"
         id="path182" /></clipPath><linearGradient
       x1="0"
       y1="0"
       x2="1"
       y2="0"
       gradientUnits="userSpaceOnUse"
       gradientTransform="matrix(0,1044.22,1044.22,0,1113.24,-224.81)"
       spreadMethod="pad"
       id="linearGradient190"><stop
         style="stop-opacity:1;stop-color:#f9aea6"
         offset="0"
         id="stop186" /><stop
         style="stop-opacity:1;stop-color:#f68595"
         offset="1"
         id="stop188" /></linearGradient><clipPath
       clipPathUnits="userSpaceOnUse"
       id="clipPath204"><path
         d="m 1121.03,462.941 c -185.846,0.008 -220.159,103.27 -220.159,103.27 44.07,21.719 76.188,51.398 95.621,87.59 1.071,-1.653 61.358,-94.051 147.878,-94.063 3.86,0 7.76,0.192 11.72,0.571 81.06,7.839 110.78,95.332 111.5,97.48 29.02,-55.769 78.85,-91.578 78.85,-91.578 0,0 -15.34,-99.832 -216.83,-103.199 -2.9,-0.051 -5.75,-0.071 -8.58,-0.071 M 1014.22,702.75 c 0,0.031 0.01,0.039 0.01,0.07 0,-0.019 -0.01,-0.05 -0.01,-0.07 m 0.03,0.148 c 0.64,3.082 1.21,6.192 1.71,9.34 1.42,8.981 1.12,19.864 -0.38,31.633 1.5,-11.769 1.8,-22.652 0.38,-31.633 -0.5,-3.136 -1.07,-6.258 -1.71,-9.34 m 1.32,41 c 0,0.043 -0.01,0.071 -0.01,0.114 0,-0.043 0.01,-0.071 0.01,-0.114 m -0.03,0.223 c 0,0.008 0,0.008 0,0.02 0,-0.012 0,-0.012 0,-0.02"
         id="path202" /></clipPath><linearGradient
       x1="0"
       y1="0"
       x2="1"
       y2="0"
       gradientUnits="userSpaceOnUse"
       gradientTransform="matrix(0,874.173,874.173,0,1123.66,-79.0699)"
       spreadMethod="pad"
       id="linearGradient210"><stop
         style="stop-opacity:1;stop-color:#f9aea6"
         offset="0"
         id="stop206" /><stop
         style="stop-opacity:1;stop-color:#f68595"
         offset="1"
         id="stop208" /></linearGradient><clipPath
       clipPathUnits="userSpaceOnUse"
       id="clipPath222"><path
         d="m 1123.6,721.148 c -0.57,0 -1.16,0 -1.77,0.012 0.61,-0.012 1.2,-0.012 1.77,-0.012 h 0.01 v 0 c -21.01,0 -64.13,8.071 -107.37,40.864 8.74,5.859 17.05,12.648 24.79,20.367 17.64,17.59 30.46,38.203 38.46,60.16 11.77,-6.527 24.42,-10.867 37.2,-10.867 0.28,0 0.56,0 0.85,0.008 51.56,0.781 99.88,69.5 100.19,69.941 0.01,0 0.01,0 0.01,0 v 0 0 c 0,0 -0.03,0 -0.08,-0.012 -2.32,-0.418 -54.01,-9.8 -105.83,-10.968 v 0 c -7.91,0.019 -15.46,0.25 -22.58,0.629 2.09,44.652 -13.88,89.992 -47.94,124.12 -32.18,32.27 -74.415,48.41 -116.65,48.41 -10.898,0 -21.797,-1.08 -32.523,-3.23 -0.875,14.45 -1.094,29.57 -0.371,45.77 0.882,19.72 3.168,41.04 7.382,64.65 24.204,135.51 115.202,215.91 224.462,215.91 109.26,0 200.83,-71.58 224.27,-215.91 4.33,-26.67 6.67,-48.99 7.62,-68.61 2.39,-49.53 -4.12,-81.91 -10.08,-123.681 C 1317.31,781.5 1173.59,721.27 1123.77,721.148 c -0.02,0 -0.05,0 -0.07,0 0.02,0 0.05,0 0.07,0 0.4,0 0.79,0 1.2,0.012 -0.46,-0.012 -0.92,-0.012 -1.37,-0.012 m -123.09,53.942 v 0 c 9.51,5.832 18.51,12.859 26.75,21.09 16.72,16.679 28.53,36.41 35.42,57.422 v 0 c -6.89,-21 -18.7,-40.75 -35.42,-57.422 -8.24,-8.231 -17.24,-15.258 -26.75,-21.09 m 69.29,117.64 v 0 c 1.69,39.192 -12.4,78.942 -42.29,108.9 -28.381,28.45 -65.608,42.68 -102.85,42.67 v 0 c 37.242,0 74.469,-14.22 102.85,-42.67 29.89,-29.958 43.98,-69.708 42.29,-108.9 m 306.01,214.66 c -0.38,24.22 -2.88,52.22 -8.77,87.37 -25.44,151.95 -90.23,227.32 -243.44,227.32 -153.209,0 -217.373,-84.65 -243.639,-227.32 -5.609,-30.46 -8.07,-57.3 -8.438,-81.87 -0.425,29.11 1.805,61.14 8.438,98.42 26.269,147.65 90.43,235.26 243.639,235.26 153.21,0 218,-78 243.44,-235.26 6.97,-43.1 9.2,-75.78 8.77,-103.92"
         id="path220" /></clipPath><linearGradient
       x1="0"
       y1="0"
       x2="1"
       y2="0"
       gradientUnits="userSpaceOnUse"
       gradientTransform="matrix(1e-7,1152.55,1152.55,-1e-7,1123.67,729.75)"
       spreadMethod="pad"
       id="linearGradient228"><stop
         style="stop-opacity:1;stop-color:#f9aea6"
         offset="0"
         id="stop224" /><stop
         style="stop-opacity:1;stop-color:#f68595"
         offset="1"
         id="stop226" /></linearGradient><clipPath
       clipPathUnits="userSpaceOnUse"
       id="clipPath304"><path
         d="m 1000.51,775.09 c -18.002,16.371 -35.553,37.422 -51.037,64.422 11.558,6.058 22.41,13.937 32.14,23.648 17.196,17.149 28.697,37.84 34.527,59.719 9.93,37.281 -8.8,76.742 -44.503,91.351 -15.024,6.15 -30.989,9.2 -46.93,9.2 -9.562,0 -19.113,-1.1 -28.457,-3.29 -0.945,6.86 -1.797,13.79 -2.516,20.85 10.18,2.21 20.555,3.31 30.926,3.31 37.242,0.01 74.469,-14.22 102.85,-42.67 29.89,-29.958 43.98,-69.708 42.29,-108.9 -32.25,3.161 -52.27,8.821 -53.6,9.2 -0.05,0.011 -0.07,0.019 -0.07,0.019 l 0.24,-0.469 c 0,0 0.1,-0.089 0.29,-0.269 3.27,-4.531 21.47,-28.973 46.02,-47.609 -6.89,-21.012 -18.7,-40.743 -35.42,-57.422 -8.24,-8.231 -17.24,-15.258 -26.75,-21.09"
         id="path302" /></clipPath><linearGradient
       x1="0"
       y1="0"
       x2="1"
       y2="0"
       gradientUnits="userSpaceOnUse"
       gradientTransform="matrix(1e-7,1152.55,1152.55,-1e-7,1123.67,729.75)"
       spreadMethod="pad"
       id="linearGradient310"><stop
         style="stop-opacity:1;stop-color:#fabeb9"
         offset="0"
         id="stop306" /><stop
         style="stop-opacity:1;stop-color:#f89eab"
         offset="1"
         id="stop308" /></linearGradient><clipPath
       clipPathUnits="userSpaceOnUse"
       id="clipPath334"><path
         d="m 949.473,839.512 c -19.563,34.09 -35.821,77.648 -45.5,133.117 -2.77,15.851 -5.504,31.471 -7.723,47.511 9.344,2.19 18.895,3.29 28.457,3.29 15.941,0 31.906,-3.05 46.93,-9.2 35.703,-14.609 54.433,-54.07 44.503,-91.351 -5.83,-21.879 -17.331,-42.57 -34.527,-59.719 -9.73,-9.711 -20.582,-17.59 -32.14,-23.648"
         id="path332" /></clipPath><linearGradient
       x1="0"
       y1="0"
       x2="1"
       y2="0"
       gradientUnits="userSpaceOnUse"
       gradientTransform="matrix(1e-7,1152.55,1152.55,-1e-7,1123.67,729.75)"
       spreadMethod="pad"
       id="linearGradient340"><stop
         style="stop-opacity:1;stop-color:#fcd2ce"
         offset="0"
         id="stop336" /><stop
         style="stop-opacity:1;stop-color:#fabcc5"
         offset="1"
         id="stop338" /></linearGradient></defs><sodipodi:namedview
     id="namedview4"
     pagecolor="#ffffff"
     bordercolor="#666666"
     borderopacity="1.0"
     inkscape:pageshadow="2"
     inkscape:pageopacity="0.0"
     inkscape:pagecheckerboard="0"
     showgrid="false"
     inkscape:zoom="3.1645253"
     inkscape:cx="147.57347"
     inkscape:cy="133.51133"
     inkscape:window-width="1920"
     inkscape:window-height="1016"
     inkscape:window-x="0"
     inkscape:window-y="27"
     inkscape:window-maximized="1"
     inkscape:current-layer="g8" /><g
     id="g8"
     inkscape:groupmode="layer"
     inkscape:label="ink_ext_XXXXXX"
     transform="matrix(1.3333333,0,0,-1.3333333,0,266.70667)"><g
       id="g10"
       transform="scale(0.1)"><path
         d="m 2197.55,1153.99 c -46.67,156.67 -164.7,189.33 -326.67,340 -143.33,133.33 -110,456.67 -580,503.33 C 884.563,2037.67 124.215,1660.66 54.2148,1290.66 4.46875,1027.72 147.547,1017.32 167.547,820.66 183.469,664.121 102.137,542.559 150.883,357.332 c 34.152,-129.793 129.832,-223.223 240,-238.441 l 1445.337,8.55 c 207.99,68.118 309.47,293.989 261.33,573.219 -16.67,96.672 169.54,219.86 100,453.33"
         style="fill:#ddf3ed;fill-opacity:1;fill-rule:nonzero;stroke:none"
         id="path12" /><path
         d="m 457.266,700.961 c -25.61,25.16 -41.789,46.559 -48.09,63.641 l 9.16,3.378 c 5.793,-15.71 21.195,-35.921 45.766,-60.07 l -6.836,-6.949"
         style="fill:#76bfb9;fill-opacity:1;fill-rule:nonzero;stroke:none"
         id="path14" /><path
         d="m 324.5,726.309 -2.48,9.441 c 2.668,0.699 5.851,1.699 9.41,2.801 14.914,4.648 35.332,11.008 53.441,8.16 l -1.512,-9.652 c -15.89,2.523 -35.039,-3.457 -49.027,-7.829 -3.719,-1.16 -7.047,-2.179 -9.832,-2.921"
         style="fill:#76bfb9;fill-opacity:1;fill-rule:nonzero;stroke:none"
         id="path16" /><path
         d="m 439.609,658.051 -2.48,9.429 c 29.219,7.68 71.656,16.02 102.711,-0.148 l -4.504,-8.652 c -28.07,14.601 -68.074,6.629 -95.727,-0.629"
         style="fill:#76bfb9;fill-opacity:1;fill-rule:nonzero;stroke:none"
         id="path18" /><path
         d="m 576.836,634.301 c -24.332,29.179 -40.078,69.097 -46,84.14 -1.023,2.579 -1.766,4.481 -2.238,5.508 l 8.879,4.063 c 0.511,-1.121 1.328,-3.18 2.433,-5.992 5.77,-14.629 21.094,-53.5 44.414,-81.469 l -7.488,-6.25"
         style="fill:#76bfb9;fill-opacity:1;fill-rule:nonzero;stroke:none"
         id="path20" /><path
         d="m 551.41,585.48 -5.945,7.739 c 17.238,13.269 55.375,28.871 78.371,24.281 l -1.934,-9.57 c -18.129,3.672 -53.382,-9.282 -70.492,-22.45"
         style="fill:#76bfb9;fill-opacity:1;fill-rule:nonzero;stroke:none"
         id="path22" /><path
         d="M 726.512,542.898 C 703.359,567.77 691.113,610.82 687.91,623.43 l 9.461,2.398 c 3.059,-12.039 14.707,-53.098 36.281,-76.277 l -7.14,-6.653"
         style="fill:#76bfb9;fill-opacity:1;fill-rule:nonzero;stroke:none"
         id="path24" /><path
         d="m 757.66,521.281 c -19.551,7.969 -38.242,6.239 -56.316,4.539 -7.227,-0.672 -14.051,-1.3 -20.789,-1.308 l -0.008,9.758 c 6.289,0 12.894,0.621 19.891,1.269 18.351,1.723 39.152,3.641 60.906,-5.207 l -3.684,-9.051"
         style="fill:#76bfb9;fill-opacity:1;fill-rule:nonzero;stroke:none"
         id="path26" /><path
         d="m 845.293,464.262 c -10.938,12.738 -18.246,26.547 -25.988,41.179 -8.559,16.18 -12.801,31.207 -16.907,45.77 -2.046,7.238 -4.113,14.578 -6.687,22.098 l 9.238,3.16 c 2.629,-7.699 4.746,-15.199 6.844,-22.617 4.148,-14.704 8.066,-28.582 15.684,-42.981 8.253,-15.609 14.992,-28.351 25.218,-40.242 l -7.402,-6.367"
         style="fill:#76bfb9;fill-opacity:1;fill-rule:nonzero;stroke:none"
         id="path28" /><path
         d="m 930.387,407.961 c -14.586,14.187 -22.196,37.078 -29.551,59.211 -3.434,10.316 -6.672,20.066 -10.418,28.168 l 8.859,4.101 c 3.973,-8.601 7.301,-18.601 10.817,-29.191 6.992,-21.02 14.219,-42.762 27.097,-55.289 l -6.804,-7"
         style="fill:#76bfb9;fill-opacity:1;fill-rule:nonzero;stroke:none"
         id="path30" /><path
         d="m 885.547,437.422 c -0.336,0.16 -33.481,15.777 -96.625,4.117 l -1.777,9.59 c 66.703,12.32 101.269,-4.238 102.714,-4.949 l -4.312,-8.758"
         style="fill:#76bfb9;fill-opacity:1;fill-rule:nonzero;stroke:none"
         id="path32" /><path
         d="m 995.582,364.012 c -27.832,18.359 -57.254,38.047 -87.902,58.547 -207.426,138.793 -465.571,311.523 -671.899,372 l 2.742,9.351 C 446.289,743.012 705.125,569.832 913.109,430.672 943.734,410.18 973.141,390.5 1000.95,372.148 l -5.368,-8.136"
         style="fill:#76bfb9;fill-opacity:1;fill-rule:nonzero;stroke:none"
         id="path34" /><path
         d="m 856.551,735.461 c -5.02,-0.582 -8.41,-49.723 -4.274,-110.539 3.754,-55.113 7.457,-87.613 51.899,-150.063 -9.141,48.282 0.601,91.2 -10.656,140.071 -10.407,45.14 -31.95,121.109 -36.969,120.531"
         style="fill:#8bc6be;fill-opacity:1;fill-rule:nonzero;stroke:none"
         id="path36" /><path
         d="m 558.91,882.449 c -6.363,-2.84 2.957,-42.98 27.008,-114.16 21.793,-64.5 57.914,-118.68 113.633,-157.82 -2.192,59.39 -27.192,109.64 -56.848,163.441 -27.402,49.711 -77.433,111.379 -83.793,108.539"
         style="fill:#8bc6be;fill-opacity:1;fill-rule:nonzero;stroke:none"
         id="path38" /><path
         d="m 154.105,637.398 c -0.015,-6.109 64.067,-16.718 137.688,-20.328 66.719,-3.281 105.668,13.602 163.273,46.25 -54.23,17.578 -109.441,13.602 -169.714,6.981 C 229.66,664.18 154.117,643.512 154.105,637.398"
         style="fill:#abdfd2;fill-opacity:1;fill-rule:nonzero;stroke:none"
         id="path40" /><path
         d="m 739.883,684.52 c 6.14,-31.641 32.121,-110.559 63.687,-124.051 31.903,35.422 1.739,95.011 -15.929,130.652 -22.457,45.289 -31,106.438 -57.59,148.918 -9.934,-42.551 1.742,-113.848 9.832,-155.519"
         style="fill:#abdfd2;fill-opacity:1;fill-rule:nonzero;stroke:none"
         id="path42" /><path
         d="m 316.945,842.34 c 16.903,-27.449 69.024,-92.149 103.321,-93.649 17.375,44.391 -31.852,89.528 -60.95,116.649 -36.972,34.469 -66.519,88.699 -106.375,119.082 5.7,-43.32 41.75,-105.942 64.004,-142.082"
         style="fill:#abdfd2;fill-opacity:1;fill-rule:nonzero;stroke:none"
         id="path44" /><path
         d="m 155.434,855.641 c 34.679,-7.153 124.136,-49.11 127.398,-71.282 -13.23,-12.05 -74.207,-2.199 -124.086,14.75 C 109.387,815.891 40.8711,829.512 0,859.762 c 52.2539,10.847 109.773,5.308 155.434,-4.121"
         style="fill:#8bc6be;fill-opacity:1;fill-rule:nonzero;stroke:none"
         id="path46" /><path
         d="m 557.246,474.031 c 35.125,0.61 126.559,22.438 136.981,56.328 -45.379,44.36 -114.118,13.692 -151.989,0.512 C 494.117,514.129 425.715,516.809 381.449,494.68 431.523,474.371 511,473.23 557.246,474.031"
         style="fill:#8bc6be;fill-opacity:1;fill-rule:nonzero;stroke:none"
         id="path48" /><path
         d="m 423.301,561.129 c -23.813,-13.668 -47.692,-33.02 -71.985,-47.109 -20.312,-11.782 -54.171,-26.731 -63.05,-49.219 40.578,4.461 93.254,17.238 132.547,30.73 52.687,18.098 103.445,56.641 141.757,97.84 -47.382,0.5 -94.355,-6.441 -139.269,-32.242"
         style="fill:#abdfd2;fill-opacity:1;fill-rule:nonzero;stroke:none"
         id="path50" /><path
         d="m 806.016,448.48 c -48.688,8.5 -99.094,5.461 -148.758,-5.671 -26.641,-5.977 -52.625,-16.207 -79.817,-20.797 -17.644,-2.981 -37.414,-1.922 -53.461,-8.301 91.836,-39.981 202.711,-14.629 282.036,34.769"
         style="fill:#abdfd2;fill-opacity:1;fill-rule:nonzero;stroke:none"
         id="path52" /><path
         d="m 339.719,735.34 c -48.828,7.64 -99.172,3.719 -148.637,-8.289 C 164.551,720.609 138.75,709.93 111.645,704.859 94.0547,701.57 74.2695,702.281 58.3398,695.621 150.859,657.262 261.273,684.551 339.719,735.34"
         style="fill:#8bc6be;fill-opacity:1;fill-rule:nonzero;stroke:none"
         id="path54" /><path
         d="m 536.91,712.012 c 2.203,52.179 -7.828,104.359 -26.176,154.508 -9.843,26.902 -24.023,52.441 -32.504,80.128 -5.503,17.973 -7.093,38.793 -15.921,54.552 -29.055,-102.161 19.769,-209.97 74.601,-289.188"
         style="fill:#abdfd2;fill-opacity:1;fill-rule:nonzero;stroke:none"
         id="path56" /><path
         d="m 1744.05,1032.68 c 5,8.66 92.27,-21.06 119.68,-30.65 14.49,24.59 28.98,52.82 42.95,83.64 -27.52,10.12 -104.86,39.72 -98.28,50.1 6.61,10.43 88.32,-2.9 116.43,-7.83 3.09,7.59 6.14,15.27 9.14,23.07 -30.27,7.77 -127.15,33.49 -119.35,42.35 7.8,8.87 99.14,-13.81 127.25,-21.04 10.5,28.78 20.34,58.61 29.1,89.14 -21.62,6.67 -100.63,32.28 -91.12,47.15 9.38,14.67 82.61,4.64 103.96,1.37 1.59,6.5 3.12,13.01 4.6,19.52 -22.07,5.53 -98.47,25.47 -91.38,35.12 6.84,9.32 75.21,1.92 98.61,-0.91 5.27,26.86 9.52,53.61 12.51,79.96 -23.31,4.99 -81.69,18.35 -78.68,26.48 3.03,8.2 59.26,-1.76 80.74,-5.88 0.71,7.9 1.45,15.81 1.92,23.59 -23.1,1.92 -76.92,7.68 -70.73,19.35 6.11,11.51 51.75,11.58 71.78,11.04 0.04,2.23 0.21,4.54 0.23,6.75 0.19,30.37 -1.38,61.47 -5.68,92 -14.27,-0.78 -41.33,-1.41 -40.12,5.16 1.2,6.57 24.56,12.76 36.74,15.55 -10.09,54.24 -29.86,105.65 -65.79,146.47 -12.81,-55.29 -43.04,-77.8 -78.85,-104.31 13.17,-18.42 41.85,-60.58 33.76,-67.94 -8.4,-7.64 -48.39,30.06 -63.45,44.83 -21.21,-17.72 -42.95,-40.1 -63.36,-64.21 20.57,-20.53 83.3,-84.87 74.94,-98.32 -8.29,-13.31 -81.36,40.4 -105.96,59.04 -13.08,-17.73 -25.02,-35.35 -34.76,-51.61 -5.1,-8.52 -9.8,-16.5 -14.37,-24.31 23.49,-20.28 94.64,-82.64 91.05,-91.14 -3.66,-8.64 -79.51,52.98 -102.28,71.73 -5.49,-9.59 -10.71,-18.83 -15.59,-27.65 20.1,-14.87 88.18,-66.77 80.74,-82.74 -7.12,-15.32 -77.55,26.13 -102.85,41.65 -11.73,-22.41 -22.85,-44.52 -35.07,-69 22.4,-19.4 87.36,-76.84 82.52,-86.72 -5.01,-10.22 -73.64,48.09 -93.18,64.99 -4.17,-8.66 -8.22,-17.31 -12.1,-25.95 13.23,-8.63 67.08,-44.55 63.4,-54.92 -3.34,-9.41 -53.93,17.87 -74.42,29.39 -10.7,-25.66 -20.13,-51.1 -28.32,-76.08 25.76,-21 84.02,-70.29 79.71,-83.46 -4.34,-13.24 -66.67,22.68 -93.24,38.72 -2.95,-10.69 -5.62,-21.22 -8.1,-31.64 21.33,-10.67 76.7,-39.55 76.13,-51.58 -0.56,-11.97 -58.91,14.94 -81.85,25.99 -25.86,-125.46 -16.63,-226.292 22.61,-260.741 61.69,-54.168 126.72,-32.629 184.24,14.852 -12.27,11.41 -34.28,33.34 -28.18,38.558 5.92,5.063 36.7,-7.359 54.12,-15.019 7.13,7.051 14.11,14.398 20.91,21.961 -19.6,9.469 -91.3,44.91 -83.26,53.031 7.97,8.039 84.19,-18.641 105.9,-26.461 12.74,15.777 24.62,31.84 35.51,47.359 -15.82,7.418 -66.38,31.829 -62.17,38.602 4,6.438 55.89,-10.98 76.22,-18.113 3.93,5.863 7.71,11.601 11.28,17.101 l 1.33,2.168 c -26.03,9.461 -112.58,41.692 -107.52,50.442"
         style="fill:#abdfd2;fill-opacity:1;fill-rule:nonzero;stroke:none"
         id="path58" /><path
         d="m 1967.61,1622.16 c 1.2,6.57 24.56,12.76 36.74,15.55 -10.09,54.24 -29.86,105.65 -65.79,146.47 33.57,-215.62 -158.02,-505.01 -221.4,-614.64 -54.84,-94.84 -149.62,-310.618 -174.21,-367.161 59.51,-46.418 121.7,-24.949 176.96,20.672 -12.27,11.41 -34.28,33.34 -28.18,38.558 5.92,5.063 36.7,-7.359 54.12,-15.019 7.13,7.051 14.11,14.398 20.91,21.961 -19.6,9.469 -91.3,44.91 -83.26,53.031 7.97,8.039 84.19,-18.641 105.9,-26.461 12.74,15.777 24.62,31.84 35.51,47.359 -15.82,7.418 -66.38,31.829 -62.17,38.602 4,6.438 55.89,-10.98 76.22,-18.113 3.93,5.863 7.71,11.601 11.28,17.101 l 1.33,2.168 c -26.03,9.461 -112.58,41.692 -107.52,50.442 5,8.66 92.27,-21.06 119.68,-30.65 14.49,24.59 28.98,52.82 42.95,83.64 -27.52,10.12 -104.86,39.72 -98.28,50.1 6.61,10.43 88.32,-2.9 116.43,-7.83 3.09,7.59 6.14,15.27 9.14,23.07 -30.27,7.77 -127.15,33.49 -119.35,42.35 7.8,8.87 99.14,-13.81 127.25,-21.04 10.5,28.78 20.34,58.61 29.1,89.14 -21.62,6.67 -100.63,32.28 -91.12,47.15 9.38,14.67 82.61,4.64 103.96,1.37 1.59,6.5 3.12,13.01 4.6,19.52 -22.07,5.53 -98.47,25.47 -91.38,35.12 6.84,9.32 75.21,1.92 98.61,-0.91 5.27,26.86 9.52,53.61 12.51,79.96 -23.31,4.99 -81.69,18.35 -78.68,26.48 3.03,8.2 59.26,-1.76 80.74,-5.88 0.71,7.9 1.45,15.81 1.92,23.59 -23.1,1.92 -76.92,7.68 -70.73,19.35 6.11,11.51 51.75,11.58 71.78,11.04 0.04,2.23 0.21,4.54 0.23,6.75 0.19,30.37 -1.38,61.47 -5.68,92 -14.27,-0.78 -41.33,-1.41 -40.12,5.16"
         style="fill:#8bc6be;fill-opacity:1;fill-rule:nonzero;stroke:none"
         id="path60" /><path
         d="m 1944.64,1688.55 c 0,0 -0.12,-5.48 -0.37,-15.76 -0.87,-10.5 -2.26,-25.82 -6.36,-44.73 -3.82,-18.99 -9.73,-41.77 -18.34,-67.25 -8.53,-25.49 -19.1,-53.92 -32.05,-84.3 -25.6,-60.88 -60.11,-129.8 -99.24,-202.22 -19.5,-36.15 -40.06,-73.36 -60.2,-111.43 -20.41,-37.95 -40.72,-76.73 -60.91,-115.57 -19.98,-38.94 -39.93,-77.892 -58.77,-116.591 -9.62,-19.258 -18.75,-38.551 -27.74,-57.617 -9.15,-19 -17.8,-37.934 -26.14,-56.621 -8.57,-18.602 -16.55,-37.051 -24.17,-55.191 -7.89,-18.04 -15.01,-35.911 -21.86,-53.321 -13.9,-34.758 -25.55,-68.129 -35.76,-99.039 -10.11,-30.961 -18.16,-59.66 -24.48,-85.281 -6.12,-25.649 -11.02,-48.129 -14.02,-66.809 -3.5,-18.601 -5.32,-33.371 -6.65,-43.422 -1.35,-10.046 -2.07,-15.398 -2.07,-15.398 l -0.07,-0.512 c -0.97,-7.258 -7.65,-12.347 -14.9,-11.379 -7.26,0.981 -12.36,7.653 -11.38,14.911 v 0.031 c 0,0 0.75,5.5 2.16,15.808 1.39,10.313 3.3,25.461 6.94,44.551 3.14,19.172 8.21,42.231 14.55,68.488 6.54,26.231 14.84,55.563 25.22,87.082 10.34,31.52 22.82,65.211 37.19,100.27 7.13,17.559 14.52,35.559 22.68,53.68 7.89,18.242 16.15,36.781 24.98,55.41 8.61,18.75 17.53,37.711 26.93,56.719 9.24,19.082 18.63,38.382 28.5,57.613 19.35,38.687 39.78,77.538 60.24,116.368 20.66,38.72 41.43,77.37 62.29,115.2 20.63,37.98 41.54,74.88 61.44,110.84 20.12,35.78 39,70.56 56.25,103.92 17.16,33.39 32.5,65.39 46.16,95.13 13.67,29.74 24.89,57.55 34,82.46 9.14,24.91 16.08,46.98 20.48,65.44 4.76,18.43 6.66,33.15 7.91,43.06 0.65,10.25 1,15.71 1,15.71 0.1,1.82 1.65,3.21 3.46,3.11 1.77,-0.1 3.13,-1.61 3.1,-3.36"
         style="fill:#76bfb9;fill-opacity:1;fill-rule:nonzero;stroke:none"
         id="path62" /><path
         d="m 1545.62,1210.54 c -32.45,12.85 -107.35,-10.16 -94.45,24.29 10.82,28.88 147.63,-23.35 160.67,-6.37 13.03,16.98 22.99,103.36 11.17,110.17 -11.83,6.81 -37.36,-13.29 -76.19,-3.66 -45.82,11.37 -96.38,-16.66 -97.21,3.64 -0.82,20.3 31.51,24.57 60.01,28.25 26.69,3.44 108.56,9.36 110.39,26.43 1.83,17.07 -17.3,85.83 -26.91,89.89 -9.62,4.06 -38.66,-7.6 -59.62,-12.8 -25.71,-6.39 -53.69,-48.48 -64.89,-32.16 -11.2,16.32 14.97,29.84 34.6,39.99 18.33,9.47 72.43,25.93 71.22,42.8 -1.21,16.87 -34.04,62.6 -42.54,65.88 -8.5,3.29 -47.64,-47.86 -50.54,-34.32 -2.63,12.31 23.98,28.58 40.75,46.66 -17.1,20.74 -33.56,36.37 -46.62,43.56 -17.37,9.55 -49.68,6.71 -86.65,-3.08 10.67,-16.06 40.43,-63.72 29.3,-79.76 -12.4,-17.86 -43.83,70.28 -57.8,71.16 -13.98,0.89 -56.81,-13.5 -71.87,-29.3 -7.34,-7.71 1.92,-39.17 23.54,-69.08 22.68,-31.37 57.81,-61.55 51.06,-82.75 -13.7,-43 -49.53,50.39 -78.09,92.27 -14.01,20.56 -26.82,38.34 -39.72,36.66 -12.89,-1.68 -25.66,-16.04 -35.38,-23.67 -11,-8.63 -35.91,-30 -39.65,-44.52 -3.75,-14.52 32.06,-51.02 69.08,-83.26 52.77,-45.95 95.02,-44.83 94.26,-70.1 -0.76,-25.25 -76.76,-6.51 -113.44,27.03 -30.08,27.5 -71.19,83.27 -82.13,72.85 -10.93,-10.42 -41.46,-73.33 -37.91,-110.1 3.56,-36.77 183.8,-43.74 179.1,-69 -5.02,-26.98 -82.4,4.38 -117.58,8.31 -23.7,2.64 -53.53,6.66 -65.15,0.07 -11.61,-6.59 2.15,-57.29 18.3,-71.16 16.15,-13.86 129.5,9.91 134.26,-20.51 5.4,-34.51 -56.92,-12.84 -82.71,-13.74 -10.59,-0.36 -20.67,-3.34 -29,-6.69 8.81,-12.69 18.91,-24.45 30.44,-34.56 51.66,-45.34 135.88,-28.33 135.88,-28.33 0,0 35.19,-43.65 74.88,-56.3 22.42,-7.14 64.63,-9.58 107.41,5.17 -8.37,7.96 -15.94,17.85 -23.04,28.08 -16.24,23.38 -58.26,45.88 -35.32,54.97 21.65,8.58 86.96,-58.67 111.54,-54.02 5.39,1.03 9.28,7.66 13.72,12.03 22.61,22.29 57.25,83.13 50.45,93.37 -8.01,12.05 -23,1.99 -57.62,15.71"
         style="fill:#abdfd2;fill-opacity:1;fill-rule:nonzero;stroke:none"
         id="path64" /><path
         d="m 1485.89,1060.4 c -8.37,7.96 -15.94,17.85 -23.04,28.08 -16.24,23.38 -58.26,45.88 -35.32,54.97 21.65,8.58 86.96,-58.67 111.54,-54.02 5.39,1.03 9.28,7.66 13.72,12.03 22.61,22.29 57.25,83.13 50.45,93.37 -8.01,12.05 -23,1.99 -57.62,15.71 -32.45,12.85 -107.35,-10.16 -94.45,24.29 10.82,28.88 147.63,-23.35 160.67,-6.37 13.03,16.99 22.99,103.36 11.17,110.17 -11.83,6.81 -37.36,-13.29 -76.19,-3.66 -45.82,11.37 -96.38,-16.66 -97.21,3.64 -0.82,20.3 31.51,24.57 60.01,28.25 26.69,3.44 108.56,9.36 110.39,26.43 1.83,17.07 -17.3,85.83 -26.91,89.89 -9.62,4.06 -38.66,-7.6 -59.62,-12.8 -25.71,-6.39 -53.69,-48.48 -64.89,-32.16 -11.2,16.32 14.97,29.84 34.6,39.99 18.33,9.47 72.43,25.93 71.22,42.8 -1.21,16.87 -34.04,62.6 -42.54,65.88 -8.5,3.29 -47.64,-47.86 -50.54,-34.32 -2.63,12.31 23.98,28.58 40.75,46.66 -17.1,20.74 -33.56,36.37 -46.62,43.56 -3.95,2.17 -8.77,3.62 -14.14,4.57 -8.68,-88.43 -55.38,-245.46 -79.67,-316.25 -25.36,-73.9 -39.42,-89.45 -78.05,-219.58 0,0 35.19,-43.65 74.88,-56.3 22.42,-7.14 64.63,-9.58 107.41,5.17"
         style="fill:#8bc6be;fill-opacity:1;fill-rule:nonzero;stroke:none"
         id="path66" /><path
         d="m 1463.58,1617.18 c 0,0 -7.17,-47.82 -24.52,-118.02 -8.65,-35.11 -19.73,-75.84 -33.57,-118.89 -13.74,-43.17 -30.64,-88.18 -46.67,-133.45 -32.4,-90.46 -63.9,-181.19 -85.34,-249.808 -10.75,-34.293 -19.18,-63 -24.54,-83.18 -5.47,-20.172 -8.24,-31.742 -8.24,-31.742 -1.26,-5.258 -6.55,-8.508 -11.82,-7.25 -5.27,1.269 -8.51,6.558 -7.25,11.82 l 0.02,0.07 0.03,0.11 c 0,0 2.97,11.769 8.75,32.121 5.69,20.391 14.54,49.23 25.77,83.589 22.4,68.75 55.07,159.27 88.58,249.38 16.59,45.14 33.99,89.96 48.44,132.38 14.49,42.49 26.21,82.77 35.42,117.51 18.49,69.49 26.42,116.73 26.42,116.73 0.4,2.36 2.62,3.94 4.97,3.55 2.33,-0.39 3.9,-2.6 3.55,-4.92"
         style="fill:#76bfb9;fill-opacity:1;fill-rule:nonzero;stroke:none"
         id="path68" /><path
         d="m 1891.62,428.102 c -10.5,32.636 -74.71,75.07 -40.53,86.796 28.65,9.821 74.44,-126.539 95.46,-125.816 21.02,0.707 92.74,47.078 90.52,60.297 -2.22,13.223 -33.4,20.031 -50.33,55.492 -19.98,41.848 -72.81,62.699 -57.92,75.988 14.88,13.301 38.3,-8.55 58.88,-27.871 19.27,-18.09 74.87,-76.476 88.95,-67.207 14.09,9.258 54.3,66.688 51.38,76.52 -2.93,9.82 -29.9,24.57 -46.93,37.219 -20.89,15.511 -70.28,10.46 -64.9,29.128 5.39,18.684 31.98,7.282 51.92,-1.269 18.63,-7.988 64.89,-38.738 76.93,-27.289 12.03,11.449 26.22,64.89 23.4,73.39 -2.81,8.5 -66.04,6.25 -57.58,16.891 7.7,9.688 36.65,-0.34 60.83,-1.762 5.05,25.911 6.63,48.141 3.93,62.539 -3.6,19.133 -25.93,41.872 -56.43,63.782 -5.52,-18.11 -23.09,-70.43 -42.19,-72 -21.29,-1.739 25.94,77.109 17.88,88.261 -8.05,11.149 -45.71,34.649 -67.09,36.2 -10.43,0.757 -28.5,-25.903 -37.69,-60.969 -9.63,-36.781 -10.58,-82.262 -30.88,-90.383 -41.16,-16.449 7.29,69.02 21.23,116.82 6.84,23.473 12.33,44.282 3,53.012 -9.32,8.731 -28.18,9.438 -40.03,12.059 -13.41,2.949 -45.17,8.5 -58.52,2.269 -13.35,-6.219 -18.67,-56.16 -20.01,-104.359 -1.91,-68.699 25.31,-100.051 5.68,-115.238 -19.63,-15.204 -52.86,54.136 -50.32,102.898 2.08,39.98 18.71,105.969 3.98,107.762 -14.73,1.777 -81.5,-14.332 -107.16,-39.981 -25.67,-25.66 81.57,-166.691 59.47,-178.902 -23.59,-13.027 -48.11,65.23 -67.1,94.359 -12.79,19.621 -28.36,44.75 -40.61,49.453 -12.25,4.688 -42.11,-37.39 -42.54,-58.3 -0.44,-20.903 88.34,-92.02 68.25,-114.621 -22.8,-25.641 -45.27,35.152 -62.04,54.152 -6.9,7.797 -15.45,13.59 -23.19,17.808 -4.12,-14.601 -6.73,-29.601 -7.21,-44.66 -2.13,-67.48 63.35,-120.73 63.35,-120.73 0,0 -11.14,-53.942 4.05,-91.93 8.58,-21.461 33.08,-55 70.97,-78.23 0.8,11.32 3.58,23.23 6.9,35 7.61,26.91 -1.57,72.82 19.64,61.101 20.03,-11.062 9.8,-102.582 28.67,-118.301 4.15,-3.46 11.6,-2.269 17.69,-2.902 31.02,-3.238 98.78,8.473 102.3,20.031 4.14,13.59 -12.85,18.68 -24.06,53.493"
         style="fill:#abdfd2;fill-opacity:1;fill-rule:nonzero;stroke:none"
         id="path70" /><path
         d="m 1740.48,379.68 c 0.8,11.32 3.58,23.23 6.9,35 7.61,26.91 -1.57,72.82 19.64,61.101 20.03,-11.062 9.8,-102.582 28.67,-118.301 4.15,-3.46 11.6,-2.269 17.69,-2.902 31.02,-3.238 98.78,8.473 102.3,20.031 4.14,13.59 -12.85,18.68 -24.06,53.493 -10.5,32.636 -74.71,75.07 -40.53,86.796 28.65,9.821 74.44,-126.539 95.46,-125.816 21.02,0.707 92.74,47.078 90.52,60.297 -2.22,13.223 -33.4,20.031 -50.33,55.492 -19.98,41.848 -72.81,62.699 -57.92,75.988 14.88,13.301 38.3,-8.55 58.88,-27.871 19.27,-18.09 74.87,-76.476 88.95,-67.207 14.09,9.258 54.3,66.688 51.38,76.52 -2.93,9.82 -29.9,24.57 -46.93,37.219 -20.89,15.511 -70.28,10.46 -64.9,29.128 5.39,18.684 31.98,7.282 51.92,-1.269 18.63,-7.988 64.89,-38.738 76.93,-27.289 12.03,11.449 26.22,64.89 23.4,73.39 -2.81,8.489 -66.04,6.25 -57.58,16.891 7.7,9.688 36.65,-0.34 60.83,-1.762 5.05,25.911 6.63,48.141 3.93,62.539 -0.82,4.352 -2.73,8.911 -5.36,13.582 -72.49,-48.628 -220.72,-111.242 -289.57,-137 -71.87,-26.902 -92.45,-25.949 -215.24,-77.89 0,0 -11.14,-53.942 4.05,-91.93 8.58,-21.461 33.08,-55 70.97,-78.23"
         style="fill:#8bc6be;fill-opacity:1;fill-rule:nonzero;stroke:none"
         id="path72" /><path
         d="m 2149.72,742.582 c 0,0 -43.25,-26.121 -111.35,-58.773 -34.04,-16.34 -74.33,-34.219 -118.3,-51.539 -44.17,-17.321 -91.32,-33.309 -137.88,-51.622 -23.32,-8.968 -46.45,-18.339 -69.11,-27.777 -22.63,-9.5 -44.69,-19.289 -65.88,-29.051 -10.51,-5.039 -20.84,-10 -30.95,-14.851 -9.99,-5.078 -19.75,-10.059 -29.26,-14.899 -9.35,-5.082 -18.45,-10.031 -27.26,-14.808 -8.63,-5.051 -16.97,-9.922 -24.97,-14.602 -15.73,-9.762 -30.15,-18.711 -42.26,-27.488 -12.47,-8.34 -22.5,-16.57 -30.99,-23.082 -8.47,-6.531 -14.42,-12.379 -18.81,-16.02 -4.29,-3.738 -6.58,-5.738 -6.58,-5.738 l -0.68,-0.594 c -5.75,-5.019 -14.48,-4.429 -19.49,1.321 -5.02,5.742 -4.43,14.472 1.32,19.492 l 0.15,0.129 c 0,0 2.46,2.09 7.08,6.011 4.7,3.778 11.2,9.918 20.2,16.649 9.01,6.699 19.74,15.191 32.8,23.648 12.79,8.934 27.8,17.942 44.17,27.742 8.3,4.68 16.94,9.551 25.89,14.579 9.08,4.75 18.46,9.66 28.11,14.711 9.76,4.781 19.79,9.691 30.05,14.71 10.35,4.758 20.92,9.629 31.68,14.579 21.65,9.562 44.13,19.121 67.14,28.351 23.03,9.18 46.51,18.262 70.12,26.91 23.58,8.762 47.27,17.09 70.62,25.258 23.36,8.152 46.28,15.863 68.21,23.832 43.9,16.02 84.27,32.731 118.42,48.07 34.14,15.352 62.13,29.168 81.53,39.18 19.41,10.051 30.15,16.172 30.15,16.172 2.92,1.656 6.63,0.648 8.3,-2.273 1.63,-2.868 0.65,-6.528 -2.17,-8.227"
         style="fill:#76bfb9;fill-opacity:1;fill-rule:nonzero;stroke:none"
         id="path74" /><path
         d="M 896.543,804.809 C 776.746,974.699 575.254,1315.52 571.754,1689.26 l 8.875,0.09 c 3.476,-371.34 203.965,-710.381 323.168,-879.42 l -7.254,-5.121"
         style="fill:#76bfb9;fill-opacity:1;fill-rule:nonzero;stroke:none"
         id="path76" /><path
         d="m 583.266,1543.99 c -7.309,8.87 -13.364,18.49 -19.219,27.79 -3.949,6.27 -8.035,12.77 -12.461,18.95 l 7.219,5.17 c 4.578,-6.4 8.734,-13.01 12.754,-19.39 5.968,-9.48 11.609,-18.44 18.554,-26.87 l -6.847,-5.65"
         style="fill:#76bfb9;fill-opacity:1;fill-rule:nonzero;stroke:none"
         id="path78" /><path
         d="m 602.969,1475.14 -8.555,2.36 c 1.727,6.25 4.781,13.9 8.012,22 6.226,15.6 13.285,33.29 12.828,45.65 l 8.867,0.33 c 0.527,-14.23 -6.898,-32.85 -13.453,-49.27 -3.141,-7.87 -6.102,-15.29 -7.699,-21.07"
         style="fill:#76bfb9;fill-opacity:1;fill-rule:nonzero;stroke:none"
         id="path80" /><path
         d="m 613.402,1393.84 c -5.847,6.45 -21.257,23.41 -30.039,24.07 l 0.657,8.84 c 10.82,-0.8 23.652,-13.39 35.902,-26.88 l -6.52,-6.03"
         style="fill:#76bfb9;fill-opacity:1;fill-rule:nonzero;stroke:none"
         id="path82" /><path
         d="m 595.723,1467.2 c -4.203,10.71 -11.723,18.21 -19.684,26.16 -4.109,4.1 -8.359,8.34 -12.289,13.16 l 6.883,5.61 c 3.64,-4.47 7.726,-8.55 11.676,-12.49 8.257,-8.24 16.793,-16.75 21.675,-29.19 l -8.261,-3.25"
         style="fill:#76bfb9;fill-opacity:1;fill-rule:nonzero;stroke:none"
         id="path84" /><path
         d="m 617.34,1378.71 c -0.75,25.43 10.098,54.27 19.328,74 l 8.039,-3.77 c -8.824,-18.85 -19.195,-46.29 -18.5,-69.98 l -8.867,-0.25"
         style="fill:#76bfb9;fill-opacity:1;fill-rule:nonzero;stroke:none"
         id="path86" /><path
         d="m 663.559,1262.65 -8.77,1.37 c 3.32,21.36 7.211,40.65 21.281,60.39 l 7.227,-5.16 c -12.942,-18.15 -16.594,-36.36 -19.738,-56.6"
         style="fill:#76bfb9;fill-opacity:1;fill-rule:nonzero;stroke:none"
         id="path88" /><path
         d="m 682.633,1199.28 -2.012,4.16 -3.762,-0.92 c -2.183,4.42 -29.254,29.09 -36.332,33.68 -9.98,6.46 -20.074,12.76 -30.14,19.05 -10.27,6.41 -20.52,12.81 -30.614,19.36 l 4.836,7.44 c 10.043,-6.52 20.25,-12.89 30.477,-19.27 10.113,-6.32 20.246,-12.65 30.266,-19.14 0.414,-0.26 40.796,-32.25 40.144,-40.32 l -0.215,-2.64 -2.648,-1.4"
         style="fill:#76bfb9;fill-opacity:1;fill-rule:nonzero;stroke:none"
         id="path90" /><path
         d="m 760.727,1025.17 c -10.391,13.67 -3.149,88.76 9.25,125.59 l 8.406,-2.83 c -13.473,-40.02 -17.047,-108.89 -10.586,-117.39 l -7.07,-5.37"
         style="fill:#76bfb9;fill-opacity:1;fill-rule:nonzero;stroke:none"
         id="path92" /><path
         d="m 737.895,1068.5 c -20.204,16.66 -54.801,30.21 -84.122,32.93 l 0.821,8.83 c 31.418,-2.91 67.16,-16.94 88.945,-34.9 l -5.644,-6.86"
         style="fill:#76bfb9;fill-opacity:1;fill-rule:nonzero;stroke:none"
         id="path94" /><path
         d="m 797.621,958.898 c -9.144,10.243 -33.121,20.852 -47.496,21.032 l 0.109,8.859 c 16.93,-0.187 43.172,-11.848 54.008,-23.969 l -6.621,-5.922"
         style="fill:#76bfb9;fill-opacity:1;fill-rule:nonzero;stroke:none"
         id="path96" /><path
         d="m 838.871,890.281 c -6.043,24.051 -6.605,51.571 -1.535,75.5 l 8.68,-1.84 c -4.727,-22.312 -4.18,-49.043 1.461,-71.492 l -8.606,-2.168"
         style="fill:#76bfb9;fill-opacity:1;fill-rule:nonzero;stroke:none"
         id="path98" /><path
         d="m 613.688,1985.54 c -6.305,1.1 -28.122,-57.38 -44.997,-132.74 -15.293,-68.31 -22.5,-109.12 9,-200.99 6.286,61.93 33.579,110.57 37.497,173.99 3.621,58.59 4.808,158.63 -1.5,159.74"
         style="fill:#8bc6be;fill-opacity:1;fill-rule:nonzero;stroke:none"
         id="path100" /><path
         d="m 882.32,1285.89 c -7.851,1.38 -24.711,-42.45 -47.476,-124.97 -20.633,-74.78 -21.071,-148.96 6.703,-221.44 35.949,57.461 44.418,120.84 50.742,190.54 5.844,64.39 -2.117,154.5 -9.969,155.87"
         style="fill:#8bc6be;fill-opacity:1;fill-rule:nonzero;stroke:none"
         id="path102" /><path
         d="m 394.105,1434.22 c -3.875,-3.98 31.282,-51.45 77.094,-100.39 41.516,-44.35 77.641,-57.95 135.93,-73.07 -24.305,45.8 -62.899,78.12 -106.469,111.92 -40.254,31.24 -102.68,65.52 -106.555,61.54"
         style="fill:#abdfd2;fill-opacity:1;fill-rule:nonzero;stroke:none"
         id="path104" /><path
         d="m 645.012,1652.39 c -14.418,-25.53 -43,-95.47 -29.11,-123.43 42.973,5.69 57.254,64.72 66.051,99.82 11.18,44.59 41.352,91.95 48.008,137.04 -31.977,-23.59 -65.965,-79.82 -84.949,-113.43"
         style="fill:#abdfd2;fill-opacity:1;fill-rule:nonzero;stroke:none"
         id="path106" /><path
         d="m 491.438,1424.14 c 22.968,-10.16 84.066,-27.81 104.222,-11.21 -11.808,39.41 -61.719,45.11 -91.441,48.78 -37.766,4.67 -80.957,26.73 -118.36,27.11 24.364,-26.82 75.336,-51.29 105.579,-64.68"
         style="fill:#abdfd2;fill-opacity:1;fill-rule:nonzero;stroke:none"
         id="path108" /><path
         d="m 560.852,1152.26 c 21.347,-20.81 89.976,-64.05 118.082,-52.04 1.578,51.25 -59.231,76.07 -90.329,91.74 -39.519,19.93 -78.585,62.54 -119.281,77.23 16.75,-41.09 63.422,-89.54 91.528,-116.93"
         style="fill:#8bc6be;fill-opacity:1;fill-rule:nonzero;stroke:none"
         id="path110" /><path
         d="m 527.145,1700.87 c -13.852,20.82 -32.79,41.14 -47.043,62.36 -11.918,17.75 -27.59,47.82 -48.34,53.84 6.722,-37.38 21.703,-85.19 36.429,-120.46 19.747,-47.29 58.762,-87.84 98.25,-119.42 -2.73,44.21 -13.168,84.4 -39.296,123.68"
         style="fill:#abdfd2;fill-opacity:1;fill-rule:nonzero;stroke:none"
         id="path112" /><path
         d="m 649.949,1053.73 c -26.972,7.28 -58.156,10.58 -85.773,17.91 -23.09,6.13 -58.141,19.66 -80.977,10.04 32.121,-25.77 78.949,-54.26 116.789,-72.71 50.739,-24.732 115.129,-33.579 172.625,-31.681 -33.312,34.141 -71.793,62.711 -122.664,76.441"
         style="fill:#abdfd2;fill-opacity:1;fill-rule:nonzero;stroke:none"
         id="path114" /><path
         d="m 744.906,1392.94 c 8.961,20.07 14.985,43.45 24.055,64.01 7.586,17.19 22.687,43.12 16.887,60.66 -25.18,-23.31 -54.192,-57.6 -73.75,-85.47 -26.223,-37.37 -40.383,-85.58 -44.711,-128.97 32.402,23.92 60.613,51.92 77.519,89.77"
         style="fill:#abdfd2;fill-opacity:1;fill-rule:nonzero;stroke:none"
         id="path116" /><path
         d="m 580.691,1496.57 c -24.019,37.99 -56.863,70.09 -94.707,96.74 -20.3,14.3 -43.07,25.55 -62.773,41.06 -12.785,10.07 -24.152,24.03 -38.258,30.94 29.18,-86.29 113.992,-145.49 195.738,-168.74"
         style="fill:#8bc6be;fill-opacity:1;fill-rule:nonzero;stroke:none"
         id="path118" /><path
         d="m 769.348,1129.43 c 25.797,39.88 42,85.41 50.742,133.17 4.691,25.62 5.359,52.19 11.484,77.8 3.973,16.62 12.328,33.67 12.68,50.1 -69.895,-66.68 -81.348,-173.69 -74.906,-261.07"
         style="fill:#abdfd2;fill-opacity:1;fill-rule:nonzero;stroke:none"
         id="path120" /><path
         d="m 635.93,1441.54 c -5.879,35.01 46.047,74.94 69.929,94.76 30.766,25.52 66.332,31.97 97.071,58.43 3.855,-31.26 -50.211,-70.79 -71.731,-89.32 -27.136,-23.35 -67.754,-48.02 -95.269,-63.87"
         style="fill:#8bc6be;fill-opacity:1;fill-rule:nonzero;stroke:none"
         id="path122" /><path
         d="m 2083.96,1092.74 c -4.07,4.5 -47.75,-13.11 -92.21,-39.64 -40.29,-24.05 -51.26,-51.9 -62.35,-98.76 42.72,8.57 71.58,33.39 101.58,62.16 27.72,26.59 57.06,71.74 52.98,76.24"
         style="fill:#abdfd2;fill-opacity:1;fill-rule:nonzero;stroke:none"
         id="path124" /><path
         d="m 1658.21,1756.49 c 5.45,-1.36 14.03,-35.34 16.93,-72.56 2.63,-33.73 -3.74,-52.44 -33.11,-73.59 -15.45,30.77 -20.51,60.42 -14.34,88.74 5.71,26.16 25.07,58.78 30.52,57.41"
         style="fill:#abdfd2;fill-opacity:1;fill-rule:nonzero;stroke:none"
         id="path126" /><path
         d="m 222.926,1472.48 c -4.406,-3.6 6.5,-42.59 25.199,-82.3 16.949,-35.99 40.379,-45.88 80.563,-55.97 -3.028,38.08 -21.875,63.9 -44.086,90.75 -20.528,24.8 -57.27,51.13 -61.676,47.52"
         style="fill:#abdfd2;fill-opacity:1;fill-rule:nonzero;stroke:none"
         id="path128" /><path
         d="m 2085.36,1244.06 c 5.75,20.12 8.57,43.47 14.36,64.08 4.84,17.24 13.21,47.17 6.3,64.45 -19.6,-23.71 -48.67,-60.66 -62.87,-88.78 -19.05,-37.7 -16.81,-82.88 -16.06,-126.05 25.86,24.48 47.44,48.33 58.27,86.3"
         style="fill:#8bc6be;fill-opacity:1;fill-rule:nonzero;stroke:none"
         id="path130" /><path
         d="m 319.199,1199.3 c -17.988,5.72 -39.07,8.97 -57.5,14.74 -15.406,4.82 -42.176,13.17 -58.277,7.67 20.476,-18 52.465,-44.76 77.25,-58.17 33.23,-17.98 74.469,-17.51 113.785,-18.28 -20.828,23.53 -41.324,43.27 -75.258,54.04"
         style="fill:#8bc6be;fill-opacity:1;fill-rule:nonzero;stroke:none"
         id="path132" /><path
         d="m 1202.76,1423.2 -6.68,7.21 c 123.31,114.44 165.43,242.62 165.84,243.9 l 9.36,-3 c -0.42,-1.3 -43.22,-131.82 -168.52,-248.11"
         style="fill:#76bfb9;fill-opacity:1;fill-rule:nonzero;stroke:none"
         id="path134" /><path
         d="m 1367.05,1668.13 c -19.68,7.6 -48.78,81.72 -23.82,90.14 24.95,8.43 30.41,-15.22 30.41,-15.22 0,0 9.65,25.81 31.02,18.13 21.37,-7.68 8.11,-33.66 8.11,-33.66 0,0 16.08,12.35 29.74,-0.77 13.66,-13.12 -43.74,-70.88 -75.46,-58.62"
         style="fill:#fdeb9e;fill-opacity:1;fill-rule:nonzero;stroke:none"
         id="path136" /><path
         d="m 1348.95,1688.31 c 15.96,-2.59 29.73,-9.6 42.48,-18.7 0,0 -16.57,-6.97 -25.91,-2.74 -9.35,4.23 -16.57,21.44 -16.57,21.44"
         style="fill:#76bfb9;fill-opacity:1;fill-rule:nonzero;stroke:none"
         id="path138" /><path
         d="m 1237.22,1460.64 -9.91,2.05 c 33.63,162.7 42.67,295.59 42.76,296.91 l 10.09,-0.67 c -0.09,-1.33 -9.17,-134.87 -42.94,-298.29"
         style="fill:#76bfb9;fill-opacity:1;fill-rule:nonzero;stroke:none"
         id="path140" /><path
         d="m 1272.08,1755.59 c 21.91,-4.44 89.63,41.69 72,62.46 -17.63,20.76 -35.82,3.95 -35.82,3.95 0,0 5.86,26.92 -17.61,32.22 -23.47,5.3 -26.18,-23.76 -26.18,-23.76 0,0 -7.48,19.18 -27.09,15.69 -19.61,-3.49 -0.63,-83.42 34.7,-90.56"
         style="fill:#ffffff;fill-opacity:1;fill-rule:nonzero;stroke:none"
         id="path142" /><path
         d="m 1299.64,1762.56 c -15.77,6.59 -32.05,8.28 -48.58,7.66 0,0 10.93,-14.94 21.68,-16.53 10.76,-1.58 26.9,8.87 26.9,8.87"
         style="fill:#76bfb9;fill-opacity:1;fill-rule:nonzero;stroke:none"
         id="path144" /><path
         d="m 487.563,901.391 c -53.95,53.55 -96.895,107.629 -97.325,108.159 l 8.84,7 c 0.418,-0.54 42.973,-54.101 96.426,-107.152 l -7.941,-8.007"
         style="fill:#76bfb9;fill-opacity:1;fill-rule:nonzero;stroke:none"
         id="path146" /><path
         d="m 395.465,1007.8 c 19.957,14.91 31.945,105.43 1.594,106.21 -30.348,0.78 -29.887,-26.82 -29.887,-26.82 0,0 -18.02,24.87 -39.859,9.31 -21.836,-15.57 0.285,-39.4 0.285,-39.4 0,0 -21.485,8.04 -33.157,-10.85 -11.668,-18.89 68.836,-62.488 101.024,-38.45"
         style="fill:#ffffff;fill-opacity:1;fill-rule:nonzero;stroke:none"
         id="path148" /><path
         d="m 410.137,1035.88 c -17.184,-8.21 -30.684,-20.48 -42.446,-34.67 0,0 20.532,-2.03 29.836,5.73 9.309,7.76 12.61,28.94 12.61,28.94"
         style="fill:#76bfb9;fill-opacity:1;fill-rule:nonzero;stroke:none"
         id="path150" /><path
         d="m 1466.36,455.141 -8.91,6.371 c 110.65,155.09 248.8,221.027 250.19,221.687 l 4.64,-9.91 c -1.35,-0.648 -137.02,-65.5 -245.92,-218.148"
         style="fill:#76bfb9;fill-opacity:1;fill-rule:nonzero;stroke:none"
         id="path152" /><path
         d="m 1704.72,678.059 c 11.22,-20.668 97.29,-42.25 103.04,-13.457 5.75,28.777 -21.17,31.437 -21.17,31.437 0,0 27.15,14.352 15.61,36.871 -11.54,22.531 -38.36,4.16 -38.36,4.16 0,0 11.35,19.539 -5.1,32.762 -16.45,13.227 -72.1,-58.461 -54.02,-91.773"
         style="fill:#fdeb9e;fill-opacity:1;fill-rule:nonzero;stroke:none"
         id="path154" /><path
         d="m 1729.61,660.941 c -5.14,17.27 -14.86,31.489 -26.73,44.278 0,0 -5.34,-19.309 0.67,-29.028 6.01,-9.73 26.06,-15.25 26.06,-15.25"
         style="fill:#76bfb9;fill-opacity:1;fill-rule:nonzero;stroke:none"
         id="path156" /><path
         d="m 2111.95,930.191 c 7.98,-12.25 25.62,-35.531 36.31,-28.57 10.69,6.969 -8.14,31.711 -20.31,36.82 11.93,-3.519 44.42,-13.359 48.47,-1.601 4.06,11.762 -17.94,17.609 -31.7,18.629 13.1,4.422 25.46,23.929 18.96,32.152 -5.78,7.301 -31.39,-5.902 -40.11,-17.652 5.34,6.98 5.77,39.261 -3.82,42.671 -16.45,5.84 -20.59,-24.55 -16.63,-35.531 -3.47,7.743 -19.64,20.02 -28.1,17.129 -8.46,-2.898 11.03,-25.558 16.9,-30.277 -9.24,4.328 -38.24,5.758 -40.09,-6.379 -1.86,-12.141 29.03,-12.113 38.24,-8.832 -6.72,-3.461 -35.85,-19.41 -30.76,-31.91 5.09,-12.508 35.53,7.711 41.66,12.75 -3.66,-6.84 -14.42,-35.699 -5.39,-39.531 9.03,-3.829 21.64,31.371 16.37,40.132"
         style="fill:#ffffff;fill-opacity:1;fill-rule:nonzero;stroke:none"
         id="path158" /><path
         d="m 2111.94,936.609 c -8.16,0.5 -14.13,7.52 -13.36,15.34 0.77,7.821 5.92,14.16 14.08,13.66 8.16,-0.5 11.73,-5.89 12.93,-13.64 1.14,-7.328 -5.49,-15.86 -13.65,-15.36"
         style="fill:#f8a13c;fill-opacity:1;fill-rule:nonzero;stroke:none"
         id="path160" /><path
         d="m 891.59,1750.04 c -16.34,-11.99 -46.988,-37.84 -35.172,-50.01 11.812,-12.17 44.363,15.41 49.711,31.43 -3.094,-15.46 -11.895,-57.59 5.73,-60.69 17.625,-3.11 22.418,25.28 21.61,42.6 8.539,-15.6 38.711,-27.77 49.48,-18.3 9.574,8.41 -13.695,38.14 -32.086,47.07 10.946,-5.5 57.567,-0.69 60.887,11.83 5.69,21.47 -38.801,21.6 -53.98,14.84 10.585,5.61 25.609,27.8 20.035,37.87 -5.571,10.06 -35.012,-17.99 -40.852,-26.08 4.707,12.23 1.981,48.61 -15.832,48.92 -17.812,0.3 -12.652,-38.2 -6.406,-49.14 -6.098,7.81 -33.918,41.47 -51.098,33.06 -17.179,-8.42 17.012,-43.01 25.285,-49.81 -10.457,3.42 -53.859,12.05 -57.886,0.16 -4.024,-11.89 48.812,-21.77 60.574,-13.75"
         style="fill:#ffffff;fill-opacity:1;fill-rule:nonzero;stroke:none"
         id="path162" /><path
         d="m 900.848,1751.01 c -0.703,11.45 8.375,20.99 19.781,21.28 11.402,0.29 21.437,-5.77 22.141,-17.22 0.703,-11.44 -6.45,-17.36 -17.403,-20.39 -10.363,-2.86 -23.816,4.89 -24.519,16.33"
         style="fill:#f8a13c;fill-opacity:1;fill-rule:nonzero;stroke:none"
         id="path164" /><path
         d="m 1523.07,1148 c 19.49,-133.71 64.95,-274.93 52.84,-409.43 -9.19,-102.172 -50.86,-215.058 -23.05,-316.531 2.09,-7.629 14.89,-6.43 14.21,1.922 -10.51,129.051 37.77,254.25 34.88,383.668 -2.47,110.461 -35.82,239.231 -68.89,343.131 -2.07,6.52 -10.93,3.7 -9.99,-2.76"
         style="fill:#a5193b;fill-opacity:1;fill-rule:nonzero;stroke:none"
         id="path166" /><path
         d="m 906.609,1455.57 c 18.586,103.79 121.771,147.23 218.031,151.26 125.99,5.28 211.48,-59.56 224.87,-190.05 1.17,-11.42 18.16,-11.98 18.23,0 1.44,258.18 -449.635,280.7 -467.974,39.72 -0.297,-3.88 6.148,-4.81 6.843,-0.93"
         style="fill:#a5193b;fill-opacity:1;fill-rule:nonzero;stroke:none"
         id="path168" /><path
         d="m 780.188,1173.21 c 0.199,61.99 -12.739,125.31 -1.321,186.93 12.422,67.03 73.77,139.19 135.34,70.25 5.051,-5.66 12.746,0.52 11.648,6.78 -9.468,53.88 -89.777,45.7 -120.085,15.25 -67.129,-67.44 -38.532,-197.03 -33.622,-279.21 0.305,-5.12 8.024,-5.22 8.04,0"
         style="fill:#a5193b;fill-opacity:1;fill-rule:nonzero;stroke:none"
         id="path170" /><path
         d="m 899.371,1571.41 c -12.086,-38.96 -29.09,-103.36 9.914,-133.3 7.582,-5.82 16.375,5.14 12.348,12.35 -11.567,20.71 -21.449,34.15 -21.586,59.38 -0.109,19.89 3.504,39.92 7.078,59.43 0.926,5.03 -6.199,7.15 -7.754,2.14"
         style="fill:#a5193b;fill-opacity:1;fill-rule:nonzero;stroke:none"
         id="path172" /><path
         d="m 1583.08,504.98 c -33.26,142.758 -24.87,282.122 -27.97,428.61 -4.58,216.38 -41.98,465.44 -226.33,594.83 -98.28,68.97 -378.475,89.78 -424.835,-67.78 C 815.363,1483.37 777.816,1336.19 774.328,1273.16 763.434,1076 802.387,833.25 756.313,639.73 716.598,472.941 769.801,403.059 772.195,369.691 L 1325.74,334.43 c 27.5,-0.93 209.03,-13.61 209.03,-13.61 37.8,56.16 63.54,118.789 48.31,184.16"
         style="fill:#a5193b;fill-opacity:1;fill-rule:nonzero;stroke:none"
         id="path174" /><path
         d="m 1572.77,379.301 c 13.96,34.027 20.69,69.668 15.02,106.258 -294.58,264.992 -277.2,492.871 -277.2,492.871 L 911.895,957.09 C 904.648,846.98 832.453,711.961 763.164,653.832 c -1.434,-7.023 -2.937,-14 -4.582,-20.902 -39.715,-166.801 13.488,-236.68 15.887,-270.051 l 562.621,-12.559 235.68,28.981"
         style="fill:#90163a;fill-opacity:1;fill-rule:nonzero;stroke:none"
         id="path176" /><g
         id="g178"><g
           id="g180"
           clip-path="url(#clipPath184)"><path
             d="m 1693.49,241.551 c -63.62,167.508 -129.96,248.859 -203,275.758 l -0.23,-0.321 c -36.17,17.762 -107.48,30.891 -143.82,49.223 -43.41,21.898 -445.569,0 -445.569,0 -64.519,-30.301 -127.418,-37.68 -162.355,-56.172 l -0.461,0.672 c -87.325,-39 -146.844,-111.18 -205.067,-269.16 H 1693.49"
             style="fill:url(#linearGradient190);fill-opacity:1;fill-rule:nonzero;stroke:none"
             id="path192" /></g></g><path
         d="m 1335.18,1040.05 c -9.61,-45.659 0.41,-88.609 23.17,-89.73 15.47,-0.75 30.55,30.899 40.16,76.56 9.61,45.65 17.05,84.89 -5.36,88.79 -22.4,3.9 -48.36,-29.96 -57.97,-75.62"
         style="fill:#f06b7d;fill-opacity:1;fill-rule:nonzero;stroke:none"
         id="path194" /><path
         d="m 910.355,1040.05 c 9.61,-45.659 -0.406,-88.609 -23.167,-89.73 -15.469,-0.75 -30.551,30.899 -40.161,76.56 -9.613,45.66 -17.05,84.89 5.356,88.79 22.406,3.9 48.363,-29.96 57.972,-75.62"
         style="fill:#f06b7d;fill-opacity:1;fill-rule:nonzero;stroke:none"
         id="path196" /><g
         id="g198"><g
           id="g200"
           clip-path="url(#clipPath204)"><path
             d="m 1121.03,462.941 c -185.846,0.008 -220.159,103.27 -220.159,103.27 44.07,21.719 76.188,51.398 95.621,87.59 1.071,-1.653 61.358,-94.051 147.878,-94.063 3.86,0 7.76,0.192 11.72,0.571 81.06,7.839 110.78,95.332 111.5,97.48 29.02,-55.769 78.85,-91.578 78.85,-91.578 0,0 -15.34,-99.832 -216.83,-103.199 -2.9,-0.051 -5.75,-0.071 -8.58,-0.071 M 1014.22,702.75 c 0,0.031 0.01,0.039 0.01,0.07 0,-0.019 -0.01,-0.05 -0.01,-0.07 m 0.03,0.148 c 0.64,3.082 1.21,6.192 1.71,9.34 1.42,8.981 1.12,19.864 -0.38,31.633 1.5,-11.769 1.8,-22.652 0.38,-31.633 -0.5,-3.136 -1.07,-6.258 -1.71,-9.34 m 1.32,41 c 0,0.043 -0.01,0.071 -0.01,0.114 0,-0.043 0.01,-0.071 0.01,-0.114 m -0.03,0.223 c 0,0.008 0,0.008 0,0.02 0,-0.012 0,-0.012 0,-0.02"
             style="fill:url(#linearGradient210);fill-opacity:1;fill-rule:nonzero;stroke:none"
             id="path212" /></g></g><path
         d="m 996.477,653.82 c 0,0 66.053,-102.57 159.613,-93.511 82.07,7.941 111.51,97.523 111.51,97.523 -8.6,16.527 -15.39,34.789 -18.5,54.406 -5.71,36.184 -6.33,65.321 -2.72,91.051 l -241.61,-11.59 c 8.68,-28.258 14.44,-58.879 11.19,-79.461 -3.31,-20.957 -9.85,-40.476 -19.483,-58.418"
         style="fill:#e35f7d;fill-opacity:1;fill-rule:nonzero;stroke:none"
         id="path214" /><g
         id="g216"><g
           id="g218"
           clip-path="url(#clipPath222)"><path
             d="m 1123.6,721.148 c -0.57,0 -1.16,0 -1.77,0.012 0.61,-0.012 1.2,-0.012 1.77,-0.012 h 0.01 v 0 c -21.01,0 -64.13,8.071 -107.37,40.864 8.74,5.859 17.05,12.648 24.79,20.367 17.64,17.59 30.46,38.203 38.46,60.16 11.77,-6.527 24.42,-10.867 37.2,-10.867 0.28,0 0.56,0 0.85,0.008 51.56,0.781 99.88,69.5 100.19,69.941 0.01,0 0.01,0 0.01,0 v 0 0 c 0,0 -0.03,0 -0.08,-0.012 -2.32,-0.418 -54.01,-9.8 -105.83,-10.968 v 0 c -7.91,0.019 -15.46,0.25 -22.58,0.629 2.09,44.652 -13.88,89.992 -47.94,124.12 -32.18,32.27 -74.415,48.41 -116.65,48.41 -10.898,0 -21.797,-1.08 -32.523,-3.23 -0.875,14.45 -1.094,29.57 -0.371,45.77 0.882,19.72 3.168,41.04 7.382,64.65 24.204,135.51 115.202,215.91 224.462,215.91 109.26,0 200.83,-71.58 224.27,-215.91 4.33,-26.67 6.67,-48.99 7.62,-68.61 2.39,-49.53 -4.12,-81.91 -10.08,-123.681 C 1317.31,781.5 1173.59,721.27 1123.77,721.148 c -0.02,0 -0.05,0 -0.07,0 0.02,0 0.05,0 0.07,0 0.4,0 0.79,0 1.2,0.012 -0.46,-0.012 -0.92,-0.012 -1.37,-0.012 m -123.09,53.942 v 0 c 9.51,5.832 18.51,12.859 26.75,21.09 16.72,16.679 28.53,36.41 35.42,57.422 v 0 c -6.89,-21 -18.7,-40.75 -35.42,-57.422 -8.24,-8.231 -17.24,-15.258 -26.75,-21.09 m 69.29,117.64 v 0 c 1.69,39.192 -12.4,78.942 -42.29,108.9 -28.381,28.45 -65.608,42.68 -102.85,42.67 v 0 c 37.242,0 74.469,-14.22 102.85,-42.67 29.89,-29.958 43.98,-69.708 42.29,-108.9 m 306.01,214.66 c -0.38,24.22 -2.88,52.22 -8.77,87.37 -25.44,151.95 -90.23,227.32 -243.44,227.32 -153.209,0 -217.373,-84.65 -243.639,-227.32 -5.609,-30.46 -8.07,-57.3 -8.438,-81.87 -0.425,29.11 1.805,61.14 8.438,98.42 26.269,147.65 90.43,235.26 243.639,235.26 153.21,0 218,-78 243.44,-235.26 6.97,-43.1 9.2,-75.78 8.77,-103.92"
             style="fill:url(#linearGradient228);fill-opacity:1;fill-rule:nonzero;stroke:none"
             id="path230" /></g></g><path
         d="m 1367.04,1194.76 c -25.44,151.95 -90.23,227.32 -243.44,227.32 -153.209,0 -217.373,-84.65 -243.639,-227.32 -16.449,-89.33 -5.813,-147.44 5.234,-208.85 C 926.273,757.602 1076.42,721.148 1123.6,721.148 h 0.01 c -43.49,0 -181.797,34.633 -219.637,251.481 -7.344,42.091 -14.496,82.551 -12.207,133.711 0.882,19.72 3.168,41.04 7.382,64.65 24.204,135.51 115.202,215.91 224.462,215.91 109.26,0 200.83,-71.58 224.27,-215.91 4.33,-26.67 6.67,-48.99 7.62,-68.61 2.39,-49.53 -4.12,-81.91 -10.08,-123.681 -28.12,-197.301 -171.97,-257.488 -221.72,-257.551 54.01,0.071 210.15,63.434 240.68,271.161 9.02,61.401 19.22,103.531 2.66,202.451"
         style="fill:#f68090;fill-opacity:1;fill-rule:nonzero;stroke:none"
         id="path232" /><path
         d="m 1113.45,1084.29 c 11.13,29.01 14.43,67.94 -11.64,92.89 32.8,-19.91 39.73,-68.55 29.13,-97.2 -10.88,-31.24 -40.15,-74.6 -41.04,-90.769 -0.99,-17.973 35.74,-42.359 35.74,-42.359 -41.04,1.32 -63.14,27.378 -63.54,45.828 -0.27,12.35 37.72,56.09 51.35,91.61"
         style="fill:#e35f7d;fill-opacity:1;fill-rule:nonzero;stroke:none"
         id="path234" /><path
         d="m 1053.09,1211.98 c -3.63,-18.55 -39.45,2.52 -89.363,-11.89 -43.172,-12.46 -63.723,-39.29 -66.09,-37.13 -5.59,6.57 8.683,41.73 61.543,58.94 48.93,15.92 97.08,6.27 93.91,-9.92"
         style="fill:#90163a;fill-opacity:1;fill-rule:nonzero;stroke:none"
         id="path236" /><path
         d="m 1182.76,1213.71 c 3.22,-18.62 38.44,1.96 88.04,-13.52 42.89,-13.39 63.9,-40.94 66.32,-38.82 5.73,6.44 -8.83,42.19 -61.31,60.53 -48.58,16.98 -95.87,8.07 -93.05,-8.19"
         style="fill:#90163a;fill-opacity:1;fill-rule:nonzero;stroke:none"
         id="path238" /><path
         d="m 1025.98,1110.99 c 0.77,-17.71 -11.07,-32.65 -26.464,-33.36 -15.391,-0.72 -28.496,13.05 -29.278,30.77 -0.785,17.7 11.055,32.64 26.446,33.36 15.396,0.71 28.506,-13.06 29.296,-30.77"
         style="fill:#6d3145;fill-opacity:1;fill-rule:nonzero;stroke:none"
         id="path240" /><path
         d="m 934.203,1086.66 c 3.492,39.53 28.313,61.29 65.047,63.33 33.84,1.88 58.85,-33.75 54.61,-50.28 0,0 -23.32,27.15 -57.825,25.2 -33.238,-1.86 -61.832,-38.25 -61.832,-38.25"
         style="fill:#6d3145;fill-opacity:1;fill-rule:nonzero;stroke:none"
         id="path242" /><path
         d="m 965.383,1130.99 c 0,0 -28.699,16.1 -30.899,12.95 -2.203,-3.15 20.555,-24.42 20.555,-24.42 l 10.344,11.47"
         style="fill:#6d3145;fill-opacity:1;fill-rule:nonzero;stroke:none"
         id="path244" /><path
         d="m 952.488,1116.83 c 0,0 -33.859,7.73 -34.863,5.21 -1.004,-2.52 27.668,-18.98 27.668,-18.98 l 7.195,13.77"
         style="fill:#6d3145;fill-opacity:1;fill-rule:nonzero;stroke:none"
         id="path246" /><path
         d="m 1221.5,1110.99 c -0.77,-17.71 11.07,-32.65 26.46,-33.36 15.39,-0.72 28.5,13.05 29.28,30.77 0.79,17.7 -11.05,32.64 -26.45,33.36 -15.39,0.71 -28.5,-13.06 -29.29,-30.77"
         style="fill:#6d3145;fill-opacity:1;fill-rule:nonzero;stroke:none"
         id="path248" /><path
         d="m 1313.27,1086.66 c -2.33,35.45 -24.5,63.33 -64.22,65.37 -34.83,1.79 -59.67,-35.79 -55.43,-52.32 0,0 23.32,27.15 57.82,25.2 33.24,-1.86 61.83,-38.25 61.83,-38.25"
         style="fill:#6d3145;fill-opacity:1;fill-rule:nonzero;stroke:none"
         id="path250" /><path
         d="m 1282.1,1130.99 c 0,0 28.69,16.1 30.9,12.95 2.2,-3.15 -20.56,-24.42 -20.56,-24.42 l -10.34,11.47"
         style="fill:#6d3145;fill-opacity:1;fill-rule:nonzero;stroke:none"
         id="path252" /><path
         d="m 1294.99,1116.83 c 0,0 33.86,7.73 34.86,5.21 1.01,-2.52 -27.66,-18.98 -27.66,-18.98 l -7.2,13.77"
         style="fill:#6d3145;fill-opacity:1;fill-rule:nonzero;stroke:none"
         id="path254" /><path
         d="m 1072.69,479.559 c -10.41,-4.227 32.97,-41.039 48.98,-41.039 17.21,0 59.28,36.921 53.29,42.851 -5.99,5.918 -35.42,-12.301 -53.29,-12.402 -17.87,-0.098 -39.07,14.613 -48.98,10.59"
         style="fill:#e35f7d;fill-opacity:1;fill-rule:nonzero;stroke:none"
         id="path256" /><path
         d="m 1394.27,1250.87 c -25.43,126.68 -96.98,234.09 -266.39,234.09 -169.415,0 -243.388,-88.13 -273.661,-223.08 -8.074,-36 -11.914,-98.86 -10.024,-151.24 9.188,5.72 20.067,6.24 27.887,-1.98 0,0 -0.602,294.36 251.518,294.36 246.94,0 251.04,-294.63 251.04,-294.63 8.05,8.57 17.81,10.73 27.18,4.43 1.4,49.1 -0.37,102.28 -7.55,138.05"
         style="fill:#fdeae5;fill-opacity:1;fill-rule:nonzero;stroke:none"
         id="path258" /><path
         d="m 880.801,1343.07 c -11.297,-24.55 -19.981,-51.75 -26.578,-81.18 -8.075,-36.01 -11.918,-98.87 -10.024,-151.24 9.184,5.71 20.063,6.23 27.887,-1.99 0,0 -0.152,85.48 39.141,164.31 -13.082,21.45 -23.403,45.01 -30.426,70.1"
         style="fill:#efc7c2;fill-opacity:1;fill-rule:nonzero;stroke:none"
         id="path260" /><path
         d="m 1394.27,1250.87 c -6.48,32.26 -15.95,63.26 -29.26,91.57 -7.13,-25.25 -17.61,-48.94 -30.88,-70.48 39.31,-78.66 40.51,-163.57 40.51,-163.57 8.05,8.57 17.81,10.73 27.18,4.43 1.4,49.1 -0.37,102.28 -7.55,138.05"
         style="fill:#efc7c2;fill-opacity:1;fill-rule:nonzero;stroke:none"
         id="path262" /><path
         d="m 916.266,356.391 c -24.868,63.078 -22.008,120.48 5.023,181.589 21.223,47.981 73.488,93.782 73.961,149.411 L 866.184,573.328 C 851.277,540.961 848.754,510.941 850.301,474 c 1.66,-39.602 11.465,-79.629 30.004,-113.98 17.336,-32.122 43.422,-58.469 45.449,-97.559 6.617,17.891 7.371,34 3.918,53.621 -2.473,14.039 -7.902,26.359 -13.406,40.309"
         style="fill:#90163a;fill-opacity:1;fill-rule:nonzero;stroke:none"
         id="path264" /><path
         d="m 908.152,332.41 c -12.433,30.84 -37.363,53.301 -52.808,82.531 -24.422,46.207 -27.957,95.411 -17.492,145.707 1.226,5.903 -7.293,10.372 -10.282,4.34 -39.179,-79.019 26.231,-177.957 76.672,-234.847 1.488,-1.68 4.789,0.089 3.91,2.269"
         style="fill:#90163a;fill-opacity:1;fill-rule:nonzero;stroke:none"
         id="path266" /><path
         d="m 1509.79,733.059 c 7.33,62.921 4.51,124.652 -6.09,186.902 -12.27,72.027 -13.09,141.839 -17.86,214.199 -0.33,4.98 -8.53,6.91 -9.36,1.27 -7.09,-48.15 -6.53,-95.78 0.28,-143.969 12.25,-86.629 18.23,-171.699 27.22,-258.402 0.39,-3.75 5.38,-3.707 5.81,0"
         style="fill:#90163a;fill-opacity:1;fill-rule:nonzero;stroke:none"
         id="path268" /><path
         d="m 1447.66,963.391 c -11.65,139.059 37.17,313.899 -62.08,430.709 -4.12,4.85 -11.04,-1.33 -8.42,-6.5 42.2,-83.11 60.19,-160.18 58.7,-253.86 -0.9,-57.23 -11.85,-115.75 3.32,-171.49 1.24,-4.559 8.9,-3.828 8.48,1.141"
         style="fill:#90163a;fill-opacity:1;fill-rule:nonzero;stroke:none"
         id="path270" /><path
         d="m 928.859,1449.42 c 19.727,24.34 32.969,48.63 59.606,66.94 27.125,18.64 53.595,21.35 84.015,30.1 4.77,1.38 3.39,7.72 -1.11,8.19 -54.6,5.77 -132.518,-50.19 -149.854,-100.96 -1.368,-4.01 4.57,-7.69 7.343,-4.27"
         style="fill:#90163a;fill-opacity:1;fill-rule:nonzero;stroke:none"
         id="path272" /><path
         d="m 1096.52,1528 c 99.32,12.64 177.62,-0.36 243.27,-79.75 2.78,-3.36 7.92,0.3 6.97,4.06 -8.42,33.2 -51.64,63.64 -81.62,76.76 -52.93,23.17 -115.28,23.11 -169.67,6.69 -4.05,-1.23 -3.54,-8.34 1.05,-7.76"
         style="fill:#90163a;fill-opacity:1;fill-rule:nonzero;stroke:none"
         id="path274" /><path
         d="m 811.988,1324.69 c 7.227,21.35 18.75,43.26 32.797,60.84 17.598,22.02 34.852,26.96 59.93,35.2 4.051,1.34 5.949,8 1.316,10.08 -50.804,22.74 -92.695,-68.37 -99.5,-104.61 -0.668,-3.57 4.282,-4.99 5.457,-1.51"
         style="fill:#90163a;fill-opacity:1;fill-rule:nonzero;stroke:none"
         id="path276" /><path
         d="m 813.488,995.391 c 14.825,97.679 -25.375,209.869 13.715,302.379 1,2.36 -1.633,4.89 -3.742,2.88 -24.859,-23.66 -23.375,-61.74 -22.953,-93.87 0.922,-70.39 9.242,-140.23 9.762,-210.948 0.015,-1.781 2.933,-2.32 3.218,-0.441"
         style="fill:#90163a;fill-opacity:1;fill-rule:nonzero;stroke:none"
         id="path278" /><path
         d="m 1217.74,901.621 c 0,0 -59.28,-11.121 -105.91,-10.98 -57.65,0.16 -95.7,11.308 -95.7,11.308 0,0 49.67,-71.051 101.41,-70.269 51.73,0.781 100.2,69.941 100.2,69.941"
         style="fill:#c4285c;fill-opacity:1;fill-rule:nonzero;stroke:none"
         id="path280" /><path
         d="m 1115.09,869.539 c -66.96,0.731 -98.72,31.941 -98.72,31.941 l -0.24,0.469 c 0,0 42.29,-12.519 95.7,-11.308 53.02,1.191 105.91,10.98 105.91,10.98 0,0 -39.83,-32.762 -102.65,-32.082"
         style="fill:#a91844;fill-opacity:1;fill-rule:nonzero;stroke:none"
         id="path282" /><path
         d="m 765.551,880.199 0.047,39.063 -48.692,0.058 -0.047,-39.058 48.692,-0.063"
         style="fill:#56203f;fill-opacity:1;fill-rule:nonzero;stroke:none"
         id="path284" /><path
         d="m 1027.26,796.18 c -56.799,-56.668 -148.783,-56.559 -205.451,0.25 -56.664,56.8 -56.551,148.781 0.25,205.45 56.804,56.66 148.789,56.55 205.451,-0.25 56.67,-56.798 56.55,-148.79 -0.25,-205.45 m 14.05,219.21 c -64.267,64.43 -168.591,64.56 -233.017,0.29 -64.426,-64.27 -64.551,-168.598 -0.281,-233.02 64.265,-64.422 168.593,-64.551 233.018,-0.281 64.42,64.269 64.55,168.59 0.28,233.011"
         style="fill:#602146;fill-opacity:1;fill-rule:nonzero;stroke:none"
         id="path286" /><path
         d="m 341.02,900.141 v 0 c 0.027,20.339 16.535,36.808 36.878,36.789 H 729.535 V 863.27 H 377.809 c -20.344,0.019 -36.813,16.531 -36.789,36.871"
         style="fill:#602146;fill-opacity:1;fill-rule:nonzero;stroke:none"
         id="path288" /><path
         d="m 779.395,897.352 c -0.008,0.589 -0.012,1.187 -0.012,1.777 0.004,-0.598 0.008,-1.18 0.012,-1.777"
         style="fill:#e3f5f0;fill-opacity:1;fill-rule:nonzero;stroke:none"
         id="path290" /><path
         d="m 853.645,772.25 c -11.415,6.398 -22.137,14.449 -31.836,24.18 -27.86,27.929 -41.996,64.359 -42.414,100.922 -0.004,0.597 -0.008,1.179 -0.012,1.777 0.027,35.973 13.328,71.93 39.894,99.902 0.911,0.957 1.84,1.909 2.782,2.849 1.437,1.43 2.906,2.83 4.386,4.2 6.77,6.22 13.985,11.68 21.535,16.38 1.692,-7.58 3.532,-14.75 5.5,-21.4 -5.863,-4.099 -11.449,-8.751 -16.671,-13.97 -23.227,-23.168 -35.332,-53.219 -36.375,-83.59 -1.313,-38.262 27.285,-70.891 65.027,-77.27 4.332,-0.73 8.691,-1.25 13.066,-1.55 -7.422,-17.969 -15.8,-35.571 -24.882,-52.43"
         style="fill:#b64e65;fill-opacity:1;fill-rule:nonzero;stroke:none"
         id="path292" /><path
         d="m 924.66,753.75 c -24.515,0 -49.027,6.172 -71.015,18.5 9.082,16.859 17.46,34.461 24.882,52.43 3.078,-0.219 6.164,-0.321 9.246,-0.321 18.137,0 36.278,3.68 53.196,11.071 17.027,-26.399 36.023,-46.95 55.297,-62.848 C 974.129,760.031 949.391,753.75 924.66,753.75"
         style="fill:#a64662;fill-opacity:1;fill-rule:nonzero;stroke:none"
         id="path294" /><path
         d="m 853.48,1001.06 c -1.968,6.65 -3.808,13.82 -5.5,21.4 9.168,5.7 18.833,10.29 28.797,13.76 1.004,-7.08 2.11,-14.08 3.274,-21.05 -9.281,-3.56 -18.207,-8.26 -26.571,-14.11"
         style="fill:#f58d9a;fill-opacity:1;fill-rule:nonzero;stroke:none"
         id="path296" /><g
         id="g298"><g
           id="g300"
           clip-path="url(#clipPath304)"><path
             d="m 1000.51,775.09 c -18.002,16.371 -35.553,37.422 -51.037,64.422 11.558,6.058 22.41,13.937 32.14,23.648 17.196,17.149 28.697,37.84 34.527,59.719 9.93,37.281 -8.8,76.742 -44.503,91.351 -15.024,6.15 -30.989,9.2 -46.93,9.2 -9.562,0 -19.113,-1.1 -28.457,-3.29 -0.945,6.86 -1.797,13.79 -2.516,20.85 10.18,2.21 20.555,3.31 30.926,3.31 37.242,0.01 74.469,-14.22 102.85,-42.67 29.89,-29.958 43.98,-69.708 42.29,-108.9 -32.25,3.161 -52.27,8.821 -53.6,9.2 -0.05,0.011 -0.07,0.019 -0.07,0.019 l 0.24,-0.469 c 0,0 0.1,-0.089 0.29,-0.269 3.27,-4.531 21.47,-28.973 46.02,-47.609 -6.89,-21.012 -18.7,-40.743 -35.42,-57.422 -8.24,-8.231 -17.24,-15.258 -26.75,-21.09"
             style="fill:url(#linearGradient310);fill-opacity:1;fill-rule:nonzero;stroke:none"
             id="path312" /></g></g><path
         d="m 996.266,772.582 c -19.274,15.898 -38.27,36.449 -55.297,62.848 2.871,1.25 5.707,2.609 8.504,4.082 15.484,-27 33.035,-48.051 51.037,-64.422 -1.401,-0.86 -2.815,-1.699 -4.244,-2.508 M 880.051,1015.17 c -1.164,6.97 -2.27,13.97 -3.274,21.05 5.571,1.94 11.231,3.53 16.957,4.77 0.719,-7.06 1.571,-13.99 2.516,-20.85 -5.484,-1.28 -10.898,-2.94 -16.199,-4.97"
         style="fill:#f89ba8;fill-opacity:1;fill-rule:nonzero;stroke:none"
         id="path314" /><path
         d="m 1062.68,853.602 c -24.55,18.636 -42.75,43.078 -46.02,47.609 2.34,-2.172 19.13,-16.922 51.4,-25.512 -1.21,-7.469 -3,-14.859 -5.38,-22.097 m 7.1,38.718 c -30.88,3.102 -52.2,9.211 -53.58,9.61 1.33,-0.379 21.35,-6.039 53.6,-9.2 0,-0.14 -0.01,-0.269 -0.02,-0.41"
         style="fill:#d06482;fill-opacity:1;fill-rule:nonzero;stroke:none"
         id="path316" /><path
         d="m 1068.06,875.699 c -32.27,8.59 -49.06,23.34 -51.4,25.512 -0.19,0.18 -0.29,0.269 -0.29,0.269 l -0.24,0.469 c 0,0 0.02,-0.008 0.07,-0.019 1.38,-0.399 22.7,-6.508 53.58,-9.61 -0.25,-5.558 -0.83,-11.121 -1.72,-16.621"
         style="fill:#b94c6d;fill-opacity:1;fill-rule:nonzero;stroke:none"
         id="path318" /><path
         d="m 924.66,753.75 c -37.242,0 -74.469,14.23 -102.851,42.68 -55.723,55.859 -56.539,145.742 -2.532,202.601 -26.566,-27.972 -39.867,-63.929 -39.894,-99.902 0,-0.59 0.004,-1.188 0.012,-1.777 0.418,-36.563 14.554,-72.993 42.414,-100.922 9.699,-9.731 20.421,-17.782 31.836,-24.18 21.988,-12.328 46.5,-18.5 71.015,-18.5 v 0 m -98.215,252.33 c 27.739,25.48 62.981,38.22 98.215,38.22 v 0 c -10.371,0 -20.746,-1.1 -30.926,-3.31 -5.726,-1.24 -11.386,-2.83 -16.957,-4.77 -9.964,-3.47 -19.629,-8.06 -28.797,-13.76 -7.55,-4.7 -14.765,-10.16 -21.535,-16.38"
         style="fill:#7c566e;fill-opacity:1;fill-rule:nonzero;stroke:none"
         id="path320" /><path
         d="m 878.527,824.68 c -4.375,0.3 -8.734,0.82 -13.066,1.55 -37.742,6.379 -66.34,39.008 -65.027,77.27 1.043,30.371 13.148,60.422 36.375,83.59 5.222,5.219 10.808,9.871 16.671,13.97 9.133,-30.849 21.008,-50.751 33.161,-50.751 0.183,0 0.363,0.011 0.547,0.011 1.878,0.102 3.671,0.469 5.371,1.11 3.722,-14.942 7.949,-28.942 12.601,-42.051 -5.906,-28.098 -15.113,-56.828 -26.633,-84.699"
         style="fill:#cb9098;fill-opacity:1;fill-rule:nonzero;stroke:none"
         id="path322" /><path
         d="m 887.773,824.359 c -3.082,0 -6.168,0.102 -9.246,0.321 11.52,27.871 20.727,56.601 26.633,84.699 10.18,-28.699 22.379,-53.141 35.809,-73.949 -16.918,-7.391 -35.059,-11.071 -53.196,-11.071"
         style="fill:#bf8b96;fill-opacity:1;fill-rule:nonzero;stroke:none"
         id="path324" /><path
         d="m 886.641,950.309 c -12.153,0 -24.028,19.902 -33.161,50.751 8.364,5.85 17.29,10.55 26.571,14.11 1.633,-9.76 3.383,-19.471 5.144,-29.26 2.16,-12.012 4.629,-23.5 7.364,-34.48 -1.7,-0.641 -3.493,-1.008 -5.371,-1.11 -0.184,0 -0.364,-0.011 -0.547,-0.011"
         style="fill:#f9b1bb;fill-opacity:1;fill-rule:nonzero;stroke:none"
         id="path326" /><g
         id="g328"><g
           id="g330"
           clip-path="url(#clipPath334)"><path
             d="m 949.473,839.512 c -19.563,34.09 -35.821,77.648 -45.5,133.117 -2.77,15.851 -5.504,31.471 -7.723,47.511 9.344,2.19 18.895,3.29 28.457,3.29 15.941,0 31.906,-3.05 46.93,-9.2 35.703,-14.609 54.433,-54.07 44.503,-91.351 -5.83,-21.879 -17.331,-42.57 -34.527,-59.719 -9.73,-9.711 -20.582,-17.59 -32.14,-23.648"
             style="fill:url(#linearGradient340);fill-opacity:1;fill-rule:nonzero;stroke:none"
             id="path342" /></g></g><path
         d="m 940.969,835.43 c -13.43,20.808 -25.629,45.25 -35.809,73.949 -4.652,13.109 -8.879,27.109 -12.601,42.051 -2.735,10.98 -5.204,22.468 -7.364,34.48 -1.761,9.789 -3.511,19.5 -5.144,29.26 5.301,2.03 10.715,3.69 16.199,4.97 2.219,-16.04 4.953,-31.66 7.723,-47.511 9.679,-55.469 25.937,-99.027 45.5,-133.117 -2.797,-1.473 -5.633,-2.832 -8.504,-4.082"
         style="fill:#fabbc4;fill-opacity:1;fill-rule:nonzero;stroke:none"
         id="path344" /><path
         d="m 343.023,911.551 c -1.191,-3.61 -1.996,-7.403 -2,-11.41 -0.027,-20.34 16.442,-36.852 36.786,-36.871 h 351.726 v 22.91 H 377.809 c -16.297,0.019 -29.954,10.699 -34.786,25.371"
         style="fill:#56203f;fill-opacity:1;fill-rule:nonzero;stroke:none"
         id="path346" /><path
         d="m 901.773,891.691 c 0,0 -9.234,45.707 -12.367,48.868 -3.375,3.41 -49.726,13.8 -49.726,13.8 0,0 45.832,9.352 49.035,12.52 3.363,3.332 13.633,49.571 13.633,49.571 0,0 9.23,-45.712 12.363,-48.868 3.375,-3.41 49.727,-13.801 49.727,-13.801 0,0 -46.45,-9.961 -49.856,-13.34 -3.16,-3.132 -12.809,-48.75 -12.809,-48.75"
         style="fill:#ffffff;fill-opacity:1;fill-rule:nonzero;stroke:none"
         id="path348" /><path
         d="m 985.094,832.512 c 0,0 -6.121,30.308 -8.199,32.398 -2.239,2.262 -32.977,9.149 -32.977,9.149 0,0 30.395,6.203 32.516,8.312 2.234,2.211 9.039,32.859 9.039,32.859 0,0 6.121,-30.308 8.199,-32.398 2.238,-2.262 32.978,-9.152 32.978,-9.152 0,0 -30.802,-6.61 -33.064,-8.84 -2.094,-2.078 -8.492,-32.328 -8.492,-32.328"
         style="fill:#ffffff;fill-opacity:1;fill-rule:nonzero;stroke:none"
         id="path350" /><path
         d="m 1985.37,103.898 c 0,-30.6792 -382.54,-55.5464 -854.41,-55.5464 -471.882,0 -854.413,24.8672 -854.413,55.5464 0,30.672 382.531,55.543 854.413,55.543 471.87,0 854.41,-24.871 854.41,-55.543"
         style="fill:#abdfd2;fill-opacity:1;fill-rule:nonzero;stroke:none"
         id="path352" /><path
         d="m 388.238,278.949 c -5.625,-3.097 -2.586,-126.961 1.727,-133.437 5.801,-8.723 189.82,-9.692 201.902,0.226 12.078,9.922 7.766,129.774 4.313,133.571 -1.696,1.871 -50.903,0.421 -101.024,0.203 -51.82,-0.231 -104.625,0.707 -106.918,-0.563"
         style="fill:#f8a13c;fill-opacity:1;fill-rule:nonzero;stroke:none"
         id="path354" /><path
         d="m 380.855,254.082 c -6.019,-3.32 -2.769,-135.953 1.848,-142.891 6.215,-9.332 203.266,-10.371 216.199,0.25 12.934,10.618 8.317,138.95 4.618,143.02 -1.817,2 -54.504,0.461 -108.176,0.219 -55.492,-0.25 -112.031,0.761 -114.489,-0.598"
         style="fill:#fabd4c;fill-opacity:1;fill-rule:nonzero;stroke:none"
         id="path356" /><path
         d="m 603.52,254.461 c -1.637,1.809 -39.415,1.461 -91.129,0.629 1.418,-42.289 1.925,-106.102 -0.551,-150.738 43.031,0.41 81.57,2.578 87.062,7.089 12.938,10.618 8.317,138.957 4.618,143.02"
         style="fill:#f8a13c;fill-opacity:1;fill-rule:nonzero;stroke:none"
         id="path358" /><path
         d="m 404.891,223.031 c -4.848,-1.609 -4.344,-73.59 1.449,-77.992 5.793,-4.41 159.324,-4.68 169.465,1.18 10.136,5.859 6.515,75.89 3.621,78.101 -2.899,2.2 -167.293,1.121 -174.535,-1.289"
         style="fill:#fdeae5;fill-opacity:1;fill-rule:nonzero;stroke:none"
         id="path360" /><path
         d="m 513.16,225.488 c 0.473,-26.359 0.578,-56.097 0.016,-83.468 31.39,0.5 58.562,1.851 62.629,4.199 10.136,5.859 6.515,75.902 3.621,78.101 -1.227,0.93 -31.383,1.27 -66.266,1.168"
         style="fill:#f5d4cf;fill-opacity:1;fill-rule:nonzero;stroke:none"
         id="path362" /><path
         d="m 380.855,260.23 c -3.492,0.239 -3.492,48.239 1.848,49.36 7.66,1.609 202.949,1.57 216.199,-0.078 8.27,-1.043 8.317,-48 4.618,-49.41 -3.696,-1.403 -213.348,-0.5 -222.665,0.128"
         style="fill:#fdeae5;fill-opacity:1;fill-rule:nonzero;stroke:none"
         id="path364" /><path
         d="m 755.512,139.961 c -1.813,-0.922 -1.016,-33.492 0,-34.481 1.922,-1.89 58.566,-2.359 61.718,-0.332 2.754,1.774 2.754,33.602 1.305,34.813 -1.871,1.57 -60.418,1.328 -63.023,0"
         style="fill:#602146;fill-opacity:1;fill-rule:nonzero;stroke:none"
         id="path366" /><path
         d="m 725.168,390.461 c -1.133,-2.32 2.227,-54.813 3.621,-95.629 2.879,-84.262 4.535,-145.594 8.899,-153.434 3.367,-6.046 27.464,-6.527 50.988,-6.398 21.496,0.121 42.5,0.309 47.019,6.398 3.239,4.364 6.422,40.332 8.934,91.25 3.086,62.493 8.18,154.524 6.281,159.512 -3.258,8.57 -121.566,6.871 -125.742,-1.699"
         style="fill:#c4e572;fill-opacity:1;fill-rule:nonzero;stroke:none"
         id="path368" /><path
         d="m 725.168,390.461 c -0.297,-0.609 -0.281,-4.75 -0.074,-11.172 22.625,1.621 61.941,0.91 84.816,-17.68 20.32,-16.507 10.012,-188.718 -5.004,-203.73 -12.535,-12.539 -56.812,-15.789 -67.269,-16.34 l 0.051,-0.141 c 3.367,-6.046 27.464,-6.527 50.988,-6.398 21.496,0.121 42.5,0.309 47.019,6.398 3.239,4.364 6.422,40.332 8.934,91.25 3.086,62.493 8.18,154.524 6.281,159.512 -1.027,2.699 -13.472,4.379 -30.16,5.149 l -63.852,-0.84 c -17.273,-1.219 -30.39,-3.258 -31.73,-6.008"
         style="fill:#a9c543;fill-opacity:1;fill-rule:nonzero;stroke:none"
         id="path370" /><path
         d="m 722.23,404.141 c -1.328,-3.289 -1.144,-15.391 0.489,-16.289 1.547,-0.864 34.914,0.386 67.14,-0.571 32.227,-0.961 63.598,-1.992 64.563,-0.101 0.836,1.629 1.269,12.84 -0.02,15.441 -4.214,8.481 -129.043,9.289 -132.172,1.52"
         style="fill:#eff7bf;fill-opacity:1;fill-rule:nonzero;stroke:none"
         id="path372" /><path
         d="m 748.316,307.539 c -2.289,-2.18 -1.281,-81.469 0,-83.828 2.438,-4.473 74.133,-5.582 78.125,-0.781 3.485,4.179 3.485,79.55 1.649,82.429 -2.367,3.723 -76.473,5.321 -79.774,2.18"
         style="fill:#eff7bf;fill-opacity:1;fill-rule:nonzero;stroke:none"
         id="path374" /><path
         d="m 889.992,405.98 c -16.078,-8.242 -53.152,-39.82 -57.711,-94.75 -2.57,-30.992 -6.98,-188.121 2.907,-197.73 9.886,-9.621 134.925,-12.359 151.246,-6.871 16.316,5.492 8.781,183.59 6.507,204.601 -5.054,46.692 -38.011,85.141 -53.515,94.75 -13.395,8.301 -36.055,6.852 -49.434,0"
         style="fill:#ee1886;fill-opacity:1;fill-rule:nonzero;stroke:none"
         id="path376" /><path
         d="m 992.941,311.23 c -5.054,46.692 -38.011,85.141 -53.515,94.75 -11.043,6.84 -28.313,6.989 -41.559,3.02 2.414,-0.852 4.727,-1.828 6.774,-3.121 15.504,-9.789 48.457,-48.918 53.511,-96.438 2.145,-20.132 8.942,-181.882 -3.879,-205.472 15.625,0.32 27.797,1.191 32.161,2.66 16.316,5.492 8.781,183.59 6.507,204.601"
         style="fill:#d20d73;fill-opacity:1;fill-rule:nonzero;stroke:none"
         id="path378" /><path
         d="m 877.145,396.172 c 0,0 -2.415,39.457 3.328,47.34 6.257,8.59 55.984,9.328 66.078,0 6.547,-6.051 4.359,-47.34 4.359,-47.34 h -73.765"
         style="fill:#602146;fill-opacity:1;fill-rule:nonzero;stroke:none"
         id="path380" /><path
         d="m 949.961,393.922 h -73.824 c -2.746,0 -4.969,2.219 -4.969,4.957 0,2.75 2.223,4.973 4.969,4.973 h 73.824 c 2.742,0 4.969,-2.223 4.969,-4.973 0,-2.738 -2.227,-4.957 -4.969,-4.957"
         style="fill:#602146;fill-opacity:1;fill-rule:nonzero;stroke:none"
         id="path382" /><path
         d="m 908.078,407.18 v 72.211 c 0,3.191 2.586,5.769 5.777,5.769 h 1.883 c 3.192,0 5.778,-2.578 5.778,-5.769 V 407.18 c 0,-3.192 -2.586,-5.782 -5.778,-5.782 h -1.883 c -3.191,0 -5.777,2.59 -5.777,5.782"
         style="fill:#602146;fill-opacity:1;fill-rule:nonzero;stroke:none"
         id="path384" /><path
         d="m 994.113,311.23 c -0.293,2.641 -0.699,5.25 -1.16,7.829 -76.098,5.011 -135.027,3.601 -160.547,2.511 -0.558,-3.351 -1.004,-6.789 -1.304,-10.34 -1.825,-21.691 -4.555,-105.101 -2.598,-156.55 65.012,-2.461 135.738,2.558 168.758,7.09 2.097,55.851 -1.649,135.812 -3.149,149.46"
         style="fill:#fcd3eb;fill-opacity:1;fill-rule:nonzero;stroke:none"
         id="path386" /><path
         d="m 891.309,472.352 c 16.019,-5.493 64.996,-1.832 69.57,-0.922 4.578,0.922 4.578,5.039 0.918,7.332 -3.664,2.277 -25.176,20.59 -50.809,22.418 -25.633,1.84 -35.703,-23.34 -19.679,-28.828"
         style="fill:#602146;fill-opacity:1;fill-rule:nonzero;stroke:none"
         id="path388" /><path
         d="m 956.926,321.031 c 0.785,-3.812 1.465,-7.66 1.89,-11.59 1.493,-13.832 5.219,-94.582 3.176,-151.371 14.012,1.16 26.125,2.442 35.27,3.7 1.758,46.851 -0.739,137.371 -4.309,157.289 -12.515,0.832 -24.515,1.461 -36.027,1.972"
         style="fill:#f9b5d9;fill-opacity:1;fill-rule:nonzero;stroke:none"
         id="path390" /><path
         d="m 1604.76,173.129 c -1.22,-1.758 -0.68,-64.231 0,-66.141 1.3,-3.617 39.59,-4.519 41.72,-0.629 1.86,3.391 1.86,64.442 0.88,66.77 -1.26,3.019 -40.84,2.551 -42.6,0"
         style="fill:#602146;fill-opacity:1;fill-rule:nonzero;stroke:none"
         id="path392" /><path
         d="m 1576,387.711 c -0.73,-2.77 5.28,-60.691 8.55,-100.41 5.79,-70.27 9.1,-113.461 11.9,-118.582 2.14,-3.887 16.07,-4.188 29.67,-4.11 12.42,0.082 24.57,0.2 27.36,4.11 2.02,2.84 5.13,27.269 8.7,65.383 5.02,53.48 14.48,149.699 13.34,155.636 -1.99,10.422 -96.8,8.344 -99.52,-2.027"
         style="fill:#90d9d0;fill-opacity:1;fill-rule:nonzero;stroke:none"
         id="path394" /><path
         d="m 1576,387.711 c -0.19,-0.731 0.12,-5.641 0.73,-13.141 17.53,1.891 48.19,1.059 65.58,-19.949 14.71,-17.769 2.62,-164.812 -6.58,-175.043 -7.45,-8.289 -33.24,-10.406 -39.31,-10.769 l 0.03,-0.09 c 2.14,-3.887 16.07,-4.188 29.67,-4.11 12.42,0.082 24.57,0.2 27.36,4.11 2.02,2.84 5.13,27.269 8.7,65.383 5.02,53.488 14.48,149.699 13.34,155.636 -0.62,3.262 -10.43,5.293 -23.71,6.231 l -50.95,-1.02 c -13.7,-1.48 -24,-3.937 -24.86,-7.238"
         style="fill:#61b8b6;fill-opacity:1;fill-rule:nonzero;stroke:none"
         id="path396" /><path
         d="m 1572.63,399.641 c -0.81,-3.192 0.27,-14.653 1.63,-15.493 1.28,-0.789 27.48,0.372 52.87,-0.519 25.32,-0.891 49.9,-1.84 50.8,-0.09 0.78,1.512 1.99,12.121 1.16,14.621 -2.76,8.328 -104.53,9.121 -106.46,1.481"
         style="fill:#90d9d0;fill-opacity:1;fill-rule:nonzero;stroke:none"
         id="path398" /><path
         d="m 1660.43,216.23 c 0.57,5.602 1.15,11.461 1.75,17.872 2.4,25.519 5.8,60.707 8.58,91.238 -35.99,1.75 -66.59,2.609 -89.86,3.019 1.3,-13.961 2.61,-28.429 3.65,-41.058 2.32,-28.141 4.24,-51.852 5.89,-70.602 24.48,-0.539 48.42,-0.648 69.99,-0.469"
         style="fill:#ceeeec;fill-opacity:1;fill-rule:nonzero;stroke:none"
         id="path400" /><path
         d="m 1648.48,326.332 c 2.06,-30.41 -0.69,-77.453 -4.79,-110.184 5.71,0.012 11.3,0.043 16.74,0.082 l 0.01,0.071 c 0.24,2.398 0.49,4.879 0.74,7.41 0.33,3.367 0.66,6.758 1,10.391 2.4,25.519 5.8,60.707 8.58,91.238 -7.73,0.379 -15.07,0.691 -22.28,0.992"
         style="fill:#90d9d0;fill-opacity:1;fill-rule:nonzero;stroke:none"
         id="path402" /><path
         d="m 1581.88,290.488 c -1.61,4.633 -43.61,5.891 -47.63,0 -1.57,-2.297 -2.18,-15.738 -2.25,-31.539 11.12,0.91 51.32,-0.117 51.32,-0.117 -0.27,16.129 -0.81,29.828 -1.44,31.656"
         style="fill:#f8a13c;fill-opacity:1;fill-rule:nonzero;stroke:none"
         id="path404" /><path
         d="m 1606.4,256.949 c -1.1,2.461 -11.31,4.321 -24.76,5.391 l -51.31,0.109 c -11.71,-0.969 -20.83,-2.738 -23.25,-5.5 -8.37,-9.551 -3.9,-136.41 0,-145.961 3.91,-9.547 93.74,-9.547 99.32,0 5.58,9.551 3.34,138.461 0,145.961"
         style="fill:#fabd4c;fill-opacity:1;fill-rule:nonzero;stroke:none"
         id="path406" /><path
         d="m 1606.4,256.949 c -1.1,2.461 -11.31,4.321 -24.76,5.391 -8.24,8.031 -21.25,0.551 -21.25,0.551 13.44,-1.071 23.84,-4.512 25.78,-9.52 2.83,-7.301 5.33,-127.832 0.79,-147.973 10.31,1.184 17.94,3.032 19.44,5.59 5.58,9.551 3.34,138.461 0,145.961"
         style="fill:#f8a13c;fill-opacity:1;fill-rule:nonzero;stroke:none"
         id="path408" /><path
         d="m 1583.4,289.25 c 0,-4.672 -12.18,-5.641 -27.21,-5.641 -15.03,0 -27.22,0.411 -27.22,5.641 0,5.219 12.19,5.629 27.22,5.629 15.03,0 27.21,-0.957 27.21,-5.629"
         style="fill:#f8a13c;fill-opacity:1;fill-rule:nonzero;stroke:none"
         id="path410" /><path
         d="m 1535.12,238.082 c -0.56,4.188 -15.46,7.316 -17.38,0 -1.46,-5.613 -0.68,-80.062 0,-85.672 0.69,-5.601 16.4,-5.601 17.38,0 0.98,5.61 0.59,81.27 0,85.672"
         style="fill:#fddb78;fill-opacity:1;fill-rule:nonzero;stroke:none"
         id="path412" /><path
         d="m 1535.12,141.34 c -0.56,0.91 -15.46,1.601 -17.38,0 -1.46,-1.231 -0.68,-17.488 0,-18.719 0.69,-1.223 16.4,-1.223 17.38,0 0.98,1.231 0.59,17.758 0,18.719"
         style="fill:#fddb78;fill-opacity:1;fill-rule:nonzero;stroke:none"
         id="path414" /><path
         d="m 1556.37,288.898 v 0 c -9.96,0.024 -18.02,8.102 -18.01,18.071 l 0.04,31.211 c 0.02,9.961 8.1,18.031 18.07,18.011 v 0 c 9.96,-0.011 18.03,-8.101 18.01,-18.062 l -0.04,-31.207 c -0.01,-9.973 -8.1,-18.031 -18.07,-18.024"
         style="fill:#602146;fill-opacity:1;fill-rule:nonzero;stroke:none"
         id="path416" /><path
         d="m 1515.1,272.719 0.04,24.801 c 0,5.23 3.63,9.468 8.1,9.46 l 66.32,-0.089 c 4.47,-0.012 8.09,-4.25 8.08,-9.481 l -0.04,-24.808 -82.5,0.117"
         style="fill:#602146;fill-opacity:1;fill-rule:nonzero;stroke:none"
         id="path418" /><path
         d="m 1592.49,185.77 c 0,-20.11 -16.31,-36.418 -36.42,-36.418 -20.12,0 -36.43,16.308 -36.43,36.418 0,20.121 16.31,36.429 36.43,36.429 20.11,0 36.42,-16.308 36.42,-36.429"
         style="fill:#fdeae5;fill-opacity:1;fill-rule:nonzero;stroke:none"
         id="path420" /><path
         d="m 1261.99,341.969 c -9.09,-13.699 -4.54,-215.289 -1.3,-226.379 4.37,-14.91 142.74,-16.5705 151.82,0.398 9.08,16.973 10.4,213.25 0.96,225.981 -4.71,6.351 -40.16,3.769 -75.64,3.902 -35.64,0.141 -71.29,2.969 -75.84,-3.902"
         style="fill:#c4e572;fill-opacity:1;fill-rule:nonzero;stroke:none"
         id="path422" /><path
         d="m 1413.47,341.969 c -3.56,4.801 -24.68,4.5 -50.09,4.121 9.01,-18.238 7.61,-217.25 -1.34,-234.692 -1.58,-3.078 -7.23,-5.519 -15.22,-7.449 32.03,0.653 61.65,4.492 65.69,12.039 9.08,16.973 10.4,213.25 0.96,225.981"
         style="fill:#a9c543;fill-opacity:1;fill-rule:nonzero;stroke:none"
         id="path424" /><path
         d="m 1386.36,345.871 h -98.02 c -4.38,0 -7.94,3.551 -7.94,7.93 v 2.769 c 0,4.379 3.56,7.93 7.94,7.93 h 98.02 c 4.38,0 7.93,-3.551 7.93,-7.93 v -2.769 c 0,-4.379 -3.55,-7.93 -7.93,-7.93"
         style="fill:#602146;fill-opacity:1;fill-rule:nonzero;stroke:none"
         id="path426" /><path
         d="m 1370.25,360.891 c 0,0 1.21,64.3 -1.2,69.711 -2.4,5.41 -90.73,3.597 -90.73,3.597 V 419.18 c 0,0 22.83,-6.008 25.84,-12.02 3,-6.012 1.8,-44.461 1.8,-44.461 l 64.29,-1.808"
         style="fill:#602146;fill-opacity:1;fill-rule:nonzero;stroke:none"
         id="path428" /><path
         d="m 1387.58,235.91 c 0,-36.512 -22.06,-66.101 -49.28,-66.101 -27.21,0 -49.27,29.589 -49.27,66.101 0,36.5 22.06,66.102 49.27,66.102 27.22,0 49.28,-29.602 49.28,-66.102"
         style="fill:#eff7bf;fill-opacity:1;fill-rule:nonzero;stroke:none"
         id="path430" /><path
         d="m 1731.04,203.191 c -3.19,-1.761 -1.5,-72.019 0.95,-75.691 3.29,-4.949 107.67,-5.539 114.53,0.082 6.85,5.617 4.43,73.609 2.47,75.758 -0.96,1.058 -28.87,0.262 -57.3,0.14 -29.4,-0.121 -59.35,0.43 -60.65,-0.289"
         style="fill:#d20d73;fill-opacity:1;fill-rule:nonzero;stroke:none"
         id="path432" /><path
         d="m 1726.85,189.09 c -3.42,-1.891 -1.61,-77.121 1.01,-81.059 3.52,-5.293 115.3,-5.929 122.64,0.09 7.34,6.02 4.75,78.82 2.65,81.129 -1.03,1.129 -30.92,0.27 -61.36,0.148 -31.48,-0.128 -63.55,0.454 -64.94,-0.308"
         style="fill:#ee1886;fill-opacity:1;fill-rule:nonzero;stroke:none"
         id="path434" /><path
         d="m 1853.15,189.25 c -0.93,1.02 -22.36,0.832 -51.69,0.379 0.79,-23.988 1.07,-60.188 -0.35,-85.508 24.41,0.219 46.27,1.438 49.39,4 7.34,6.02 4.75,78.82 2.65,81.129"
         style="fill:#d20d73;fill-opacity:1;fill-rule:nonzero;stroke:none"
         id="path436" /><path
         d="m 1740.47,171.469 c -2.75,-0.918 -2.48,-41.739 0.81,-44.239 3.28,-2.5 90.37,-2.699 96.12,0.622 5.76,3.328 3.72,43.046 2.08,44.296 -1.65,1.25 -94.9,0.684 -99.01,-0.679"
         style="fill:#fcd3eb;fill-opacity:1;fill-rule:nonzero;stroke:none"
         id="path438" /><path
         d="m 1801.89,172.84 c 0.26,-14.961 0.31,-31.828 -0.01,-47.352 17.8,0.282 33.22,1.032 35.52,2.371 5.76,3.321 3.72,43.039 2.08,44.289 -0.7,0.532 -17.8,0.731 -37.59,0.692"
         style="fill:#f9b5d9;fill-opacity:1;fill-rule:nonzero;stroke:none"
         id="path440" /><path
         d="m 1726.85,192.57 c -1.98,0.141 -1.97,27.371 1.06,28 4.34,0.91 115.12,0.852 122.63,-0.101 4.7,-0.59 4.71,-27.231 2.61,-28.02 -2.09,-0.801 -121.02,-0.238 -126.3,0.121"
         style="fill:#602146;fill-opacity:1;fill-rule:nonzero;stroke:none"
         id="path442" /><path
         d="M 1073.15,120.379 1142.72,75.3789 1142.59,45.582 1072.63,0 c -13.01,39.3594 -12.38,79.5195 0.52,120.379"
         style="fill:#fdeae5;fill-opacity:1;fill-rule:nonzero;stroke:none"
         id="path444" /><path
         d="M 1142.66,61.8906 1142.59,45.582 1072.63,0 c -1.85,5.58984 -3.42,11.1992 -4.72,16.832 l 74.75,45.0586"
         style="fill:#f5d4cf;fill-opacity:1;fill-rule:nonzero;stroke:none"
         id="path446" /><path
         d="m 1141.22,75.6797 -0.13,-30.1094 c 0,0 321.52,-0.8203 321.59,15.3086 0.07,16.1211 -321.46,14.8008 -321.46,14.8008"
         style="fill:#602146;fill-opacity:1;fill-rule:nonzero;stroke:none"
         id="path448" /><path
         d="m 1209.27,45.7617 -68.61,-1.3398 0.13,32.3086 68.61,-0.7696 -0.13,-30.1992"
         style="fill:#b1b5ba;fill-opacity:1;fill-rule:nonzero;stroke:none"
         id="path450" /></g></g></svg>
